<?xml version="1.0" encoding="utf-8"?>
<!-- Generator: Adobe Illustrator 25.0.0, SVG Export Plug-In . SVG Version: 6.00 Build 0)  -->
<svg version="1.1" id="Capa_1" xmlns="http://www.w3.org/2000/svg" xmlns:xlink="http://www.w3.org/1999/xlink" x="0px" y="0px"
	 viewBox="0 0 23.4 22.5" style="enable-background:new 0 0 23.4 22.5;" xml:space="preserve">
<style type="text/css">
	.st0{fill:#5B8B30;}
</style>
<g>
	<path class="st0" d="M16.9,19.4c-0.2-0.1-0.6-0.2-0.7-0.4c-0.2-0.4-0.4-0.9-0.5-1.4c-0.2-2.6,0-5.1,0.6-7.6
		c0.4-1.6,0.9-3.2,1.5-4.8c0.5-1.3,1-2.6,1.9-3.6c0.5-0.6,1.2-1,1.8-1.5c0.3-0.2,1,0,1.1,0.4c0.2,0.8,0.5,1.7,0.6,2.6
		c0.3,2,0.3,4.1,0,6.1c-0.3,1.7-0.7,3.4-1.6,4.9c-0.6,1-1.3,1.9-2,2.8c-0.6,0.8-1.2,1.5-1.9,2.3c-0.2,0.2-0.5,0.3-0.8,0.5
		C16.9,19.5,16.9,19.5,16.9,19.4z M16.8,16.8c0.1,0,0.1,0.1,0.2,0.1c1.5-1.9,3.2-3.7,4-6.1c1-2.8,1.1-5.7,0.8-8.6
		c-0.5,0.4-0.9,0.7-1.2,1.2c-0.6,1-1.2,2.1-1.6,3.2c-0.9,2.4-1.7,4.8-2,7.4C17,14.9,16.9,15.8,16.8,16.8z"/>
	<path class="st0" d="M14.6,21.4c0.6-0.8,0.5-1.5,0.1-2.2c-0.9-1.3-2.1-2.2-3.3-3.1c-2.2-1.6-4.5-2.9-7.1-3.9
		c-0.9-0.4-1.8-0.6-2.8-0.9c-0.9-0.2-1.3,0-1.4,0.9c-0.4,2.3,0.5,4.2,2,5.8c1.6,1.7,3.5,2.7,5.6,3.5c1.8,0.7,3.7,0.9,5.7,1
		c0.2,0,0.5-0.2,0.6-0.3c0.2-0.3,0.3-0.5,0-0.9c-0.7-0.8-1.4-1.1-2.5-1.1c-2.1,0-4.1-0.6-6.1-1.4C4,18.2,3,17.3,2.1,16.1
		c-0.5-0.8-0.3-1.6-0.3-2.4c0-0.1,0.3-0.2,0.5-0.2c1.1,0.3,2.2,0.6,3.3,1c2.7,1.1,5.2,2.5,7.4,4.4c0.3,0.3,0.5,0.8,0.7,1.2
		C14,20.5,14.3,20.9,14.6,21.4z"/>
	<path class="st0" d="M6,4.1c0.2-0.8,0.7-1.4,1.5-1.7c0.1,0,0.3,0,0.4,0.1C8.7,3.8,9.9,4.7,11,5.8c1.5,1.6,2.9,3.3,3.3,5.6
		c0.1,0.3,0.2,0.6,0.3,1c0.2,0.8,0.1,1.1-0.7,1.4c-0.5,0.2-1,0.3-1.5,0.3c-0.3,0-0.7-0.2-1-0.3c-0.9-0.5-1.8-1-2.6-1.6
		c-0.9-0.7-1.5-1.6-2-2.6C6.5,8.9,6.3,8.3,6.1,7.7C5.8,6.5,5.6,5.3,6,4.1z M7.3,4.7c-0.1,0-0.1,0.1-0.2,0.1C7.3,6.7,7.8,8.4,9,9.9
		c1,1.3,2.5,2,3.9,2.8c-0.3-0.9-0.6-1.8-0.9-2.6c-0.3-0.6-0.6-1.2-1.1-1.7c-0.8-0.8-1.5-1.6-2.3-2.4C8.1,5.5,7.7,5.1,7.3,4.7z"/>
</g>
</svg>
