<svg id="Capa_1" data-name="Capa 1" xmlns="http://www.w3.org/2000/svg" viewBox="0 0 233.59 112.97"><defs><style>.cls-1{fill:#5b8b30;}.cls-2{fill:#f49912;fill-rule:evenodd;}.cls-3{fill:#fefefe;}.cls-4{fill:#fec70d;}.cls-5{fill:#fff;}.cls-6{fill:#1d1d1b;}</style></defs><path class="cls-1" d="M128.54,33.57c-.41-.24-1-.38-1.19-.74a6.25,6.25,0,0,1-.83-2.4,41.29,41.29,0,0,1,1.11-13.1c.73-2.79,1.54-5.57,2.51-8.29a19.66,19.66,0,0,1,3.37-6.28A18.31,18.31,0,0,1,136.63.15a1.38,1.38,0,0,1,1.86.72,31.57,31.57,0,0,1,1,4.45,38.14,38.14,0,0,1,0,10.51,21.15,21.15,0,0,1-2.79,8.39c-1.06,1.65-2.26,3.21-3.46,4.76-1,1.35-2.14,2.66-3.28,3.94a5.62,5.62,0,0,1-1.31.83ZM128.48,29l.34.14c2.65-3.27,5.55-6.35,7-10.47a33.14,33.14,0,0,0,1.33-14.88,8,8,0,0,0-2.05,2,41.82,41.82,0,0,0-2.78,5.46A51.42,51.42,0,0,0,128.92,24C128.73,25.67,128.63,27.33,128.48,29Z"/><path class="cls-1" d="M124.68,36.9a3,3,0,0,0,.11-3.81A20.81,20.81,0,0,0,119,27.74,57.29,57.29,0,0,0,106.85,21a47.25,47.25,0,0,0-4.77-1.53c-1.56-.42-2.2.07-2.49,1.62-.75,4,.89,7.17,3.54,10.05a23.22,23.22,0,0,0,9.63,6,33.29,33.29,0,0,0,9.82,1.77,1.56,1.56,0,0,0,1.12-.6,1.1,1.1,0,0,0-.06-1.59,5.11,5.11,0,0,0-4.29-2,28.87,28.87,0,0,1-10.58-2.45,11.7,11.7,0,0,1-5.66-4.48c-.9-1.35-.5-2.8-.51-4.23a1.13,1.13,0,0,1,.84-.3,54.81,54.81,0,0,1,5.63,1.76,46,46,0,0,1,12.7,7.54c.59.5.79,1.43,1.25,2.11S124.08,36.12,124.68,36.9Z"/><path class="cls-1" d="M109.71,7.12a4.15,4.15,0,0,1,2.59-2.86.74.74,0,0,1,.7.18c1.46,2.15,3.56,3.69,5.32,5.55,2.62,2.77,4.93,5.73,5.68,9.62.11.57.34,1.12.45,1.69.27,1.46.12,1.89-1.24,2.43a7,7,0,0,1-2.54.45A3.53,3.53,0,0,1,119,23.6a45.06,45.06,0,0,1-4.45-2.8,11.48,11.48,0,0,1-3.38-4.42,17.92,17.92,0,0,1-1.2-3.15A10.52,10.52,0,0,1,109.71,7.12Zm2.27,1-.3.19A16.77,16.77,0,0,0,115,17.14c1.73,2.3,4.32,3.44,6.75,4.86a39.62,39.62,0,0,0-1.61-4.56,9.6,9.6,0,0,0-1.91-3c-1.34-1.38-2.65-2.79-4-4.17C113.47,9.51,112.72,8.81,112,8.1Z"/><path class="cls-2" d="M181.35,78a2.34,2.34,0,0,0-.94-2.38c-2.63-.36-4.87-.68-7.1-1-1-.13-1.91-.2-2.84-.26-1.54-.09-3.06-.14-4.59-.23a11.22,11.22,0,0,0-3.11-.13,9.7,9.7,0,0,1-5.14-.33c-2.83-.72-3.67-.56-4.66,1a2.67,2.67,0,0,1-2,.89,16.42,16.42,0,0,1-3.31-.46c-1.78-.29-3.69-.86-4.85,0-1.41,1-2.82.8-5.14-.57-1.86.58-4.23.07-6.61-.47-.4-.1-.8-.19-1.19-.25-2.29-.33-3,.72-3.44,2s-1.91.57-1.21-1.32l-.85-1.33c-2.37.93-5.4-.19-8.46-.8a12.08,12.08,0,0,0,.78-2.28,4.16,4.16,0,0,0-.41-1.88,2.26,2.26,0,0,0-1.1-.63,17.84,17.84,0,0,1-6.25-.62c-2-.42-3.75-.46-4.17,1.07a21.71,21.71,0,0,1-1.14,2.8c-.54-.63-.9-1.06-1.18-1.4-.5,0-1,0-1.45.06a8.2,8.2,0,0,1-5.9-1.38.83.83,0,0,0-.56,0c-1.72.45-3.86,0-6-.53-2.58-.62-3.46-.38-3.9,1.25a2.5,2.5,0,0,1-.34,1.11,1.49,1.49,0,0,1-1.15.58,16.64,16.64,0,0,1-3.67-.52c-2.33-.65-3.78-.41-4.33,1a11.76,11.76,0,0,1-.82,1.52c-.11-.15-.23-.29-.34-.43-.5-.1-1-.21-1.5-.27-.66-.08-1.29-.11-1.94-.18-2.28-.23-5.19-1.36-5.88.63l-.32.51-2.13,3.85-.33.49c-.08.13-.16.25-.23.38l-.89-.31c.5-1.91.65-4,2.88-5.24-3.48-.64-6.13-.77-7.42.83a13,13,0,0,0-2.51,4c-2.12,6.4-4.17,12.83-6,19.36a23.48,23.48,0,0,0-.51,11c.17.93.69,1.4,1.84,1.56a51.51,51.51,0,0,1,5.23.76c2.15.52,2.72-.33,3.21-1.34.9-1.87,1.76-3.76,2.64-5.64l.87-1.81h0L60.88,103l0,.18c0,.55,0,1.1,0,1.64l0,.21a6.89,6.89,0,0,0,1,5.41c.16.29.75.59,1.14.88l1,.35.9.24,3.65.39c1.45.16,3.45.83,4.25.4,1.84-1,4.64.15,6.93.26,1.13,0,2,.1,2.41-.54a11.58,11.58,0,0,0,1-1.68c.24-.57.66-.76,1.66-.6,2.43.39,4.79.61,7.18.9,1.21.14,2.41.24,3.65.48,2.88.56,5.47.69,6.83-.79.78-.83,2.09-.82,3.59-.59,1.27.18,2.56.45,3.83.65a7,7,0,0,0,2.38.22,3.18,3.18,0,0,0,1.66-1.38c.57-1,1.36-1.52,3.32-1a2.59,2.59,0,0,0,1.82-.15,23.88,23.88,0,0,0,2-1.74,1.49,1.49,0,0,1,1.12-.29c2.42.34,4.91.84,7.3,1.12a26.55,26.55,0,0,0,3.06.11h1.58c.33,0,.66,0,1,0a12.09,12.09,0,0,1,2.65.19c3.1.67,5.58.7,6.61-1.22a1.11,1.11,0,0,1,1.07-.52c1.94.33,3.93.79,5.9,1.21.79.16,1.6.39,2.38.52,1.5.23,3,.41,4.48.61,1.23.17,2.72.66,3.62.44a7.59,7.59,0,0,0,2.6-1.71c.35-.25.58-.71,1.06-.7,1.27,0,2.65.32,4,.49a30.93,30.93,0,0,0,4.86.55,3.09,3.09,0,0,0,2.53-1.15c1.21-2.23,2.07-4.67,3.17-7a1.33,1.33,0,0,1,1.28-.79c2.42.41,5.11,1.25,5-1.25l.14-.15c.11-.67.54-1.32.23-2a44.82,44.82,0,0,0-2.57-4.5l-1.71-.24c-.15-.6-.26-1-.38-1.5a30.33,30.33,0,0,1-.72-11"/><path class="cls-3" d="M151.29,107.35l.08,0-.08,0m-.08,0h0m-4.44-.93h0c1.45.28,2.93.61,4.4.92-1.47-.31-2.95-.64-4.4-.92m32.69-30.9.28,0-.28,0"/><path class="cls-4" d="M179.26,75.47a9,9,0,0,1-1.37,2.78c-1.42,1.72-3.58,2.94-5,4.68s-3,3.32-4.44,5-2.62,3.6-4.13,5.26-2.15,4-3.81,5.52c-2,1.86-5.72,2.38-8.05,4-1.84,1.27-3.82,2.44-5.71,3.65,1.45.28,2.93.61,4.4.92h.12l.08,0h0c.79.16,1.6.39,2.38.52,1.5.23,3,.41,4.48.61a27.3,27.3,0,0,0,3.09.49,2.22,2.22,0,0,0,.53,0,7.59,7.59,0,0,0,2.6-1.71c.34-.24.57-.7,1-.7h0c1.27,0,2.65.32,4,.49a40.12,40.12,0,0,0,4.54.56h.32a3.09,3.09,0,0,0,2.53-1.15c1.21-2.23,2.07-4.67,3.17-7a1.37,1.37,0,0,1,1.14-.8h.14a22,22,0,0,0,3.24.47c1.05,0,1.79-.36,1.79-1.61v-.11h0l.14-.15a9.58,9.58,0,0,0,.34-1.5,1.34,1.34,0,0,0-.11-.54,44.82,44.82,0,0,0-2.57-4.5l-1.71-.24c-.15-.6-.26-1-.38-1.5a25.5,25.5,0,0,1-.9-7c0-1.36.08-2.69.18-4,0-.14,0-.28,0-.43a2.15,2.15,0,0,0-1-2h0l-.67-.09-.28,0-.2,0"/><path class="cls-4" d="M66.66,71a1.86,1.86,0,0,0-2,1.16l-.32.51-2.13,3.85-.33.49c-.08.13-.16.25-.23.38l-.89-.31h0c.5-1.91.65-4,2.88-5.24a22,22,0,0,0-3.89-.45A4.26,4.26,0,0,0,56.2,72.7a13,13,0,0,0-2.51,4c-2.12,6.4-4.17,12.83-6,19.36h0a24.27,24.27,0,0,0-.86,4.89,32.73,32.73,0,0,0,2.58-2.25c1.52-1.54,3-3.13,4.54-4.68s1.85-4,3.3-5.55a60.57,60.57,0,0,0,4.25-4.86c.67-.85,3.64-2.24,5.82-4.91,1.44-1.77,2.51-4.13,3.87-6.22.17-.27.32-.55.48-.83l-1.14-.1h0c-1.25-.13-2.7-.53-3.86-.53"/><path class="cls-5" d="M103,69.41a9.66,9.66,0,0,1,2.29.17,5.64,5.64,0,0,1,1.7.65,3,3,0,0,1,1,1,1.78,1.78,0,0,1,.17,1.29,2.5,2.5,0,0,1-.68,1.21,4.49,4.49,0,0,1-1.37.92,8.14,8.14,0,0,1-2,.58,13.1,13.1,0,0,1-2.5.17c-.65,0-1.34-.07-2-.15s-1.44-.2-2.2-.34c-.56.73-1.09,1.48-1.59,2.26s-1,1.53-1.34,2.25-.72,1.37-1,2-.47,1.07-.59,1.41L92,85.28h1.12a6.38,6.38,0,0,1,1.65-1.67,5,5,0,0,1,2.53-.85,1.73,1.73,0,0,1,1,.2,1.53,1.53,0,0,1,.63.63,1.86,1.86,0,0,1,.21.89,2,2,0,0,1-.24.94,2.38,2.38,0,0,1-.77.82,3.24,3.24,0,0,1-1.3.5,12.39,12.39,0,0,1-1.35.13l-1.64,0a13.74,13.74,0,0,0-.75,1.73,5.58,5.58,0,0,0-.31,1.15,1.43,1.43,0,0,1-.38.78,1.31,1.31,0,0,1-.66.46.46.46,0,0,1-.54-.22,1.73,1.73,0,0,1,0-1.22c.13-.32.28-.71.44-1.19a14.12,14.12,0,0,1,.59-1.51H91.4q-1.92,5.19-3.61,8.8a58.83,58.83,0,0,1-3.15,6,23,23,0,0,1-2.75,3.71,11.83,11.83,0,0,1-2.42,2,6.33,6.33,0,0,1-2.14.83c-.68.11-1.33.18-2,.22a5.29,5.29,0,0,1-1.36-.1,5,5,0,0,1-1.73-.76,1,1,0,0,1-.47-.57.82.82,0,0,1,0-.6.68.68,0,0,1,.39-.37.72.72,0,0,1,.63.06,1,1,0,0,0,.47.07,5,5,0,0,0,.7-.09l.84-.2q.47-.12.9-.27a6.54,6.54,0,0,0,3-2.34A25.46,25.46,0,0,0,81.33,99q1.22-2.52,2.39-5.57c.78-2,1.6-4.1,2.46-6.2a25.64,25.64,0,0,0-3.29.76,14.54,14.54,0,0,0-3.2,1.4c-.26.15-.46.21-.61.15a.38.38,0,0,1-.26-.32,1.14,1.14,0,0,1,.13-.6,1.73,1.73,0,0,1,.56-.63,9.47,9.47,0,0,1,3.34-1.63,25.85,25.85,0,0,1,4-.76l.49-1.12c.31-.69.68-1.46,1.09-2.31s.89-1.73,1.42-2.64,1.11-1.81,1.75-2.72a24.75,24.75,0,0,1,2.1-2.59c-1.5-.29-2.94-.53-4.31-.73a11.88,11.88,0,0,0-3.58,0,4.73,4.73,0,0,0-1.8.73,5.85,5.85,0,0,0-1.25,1.17A6.54,6.54,0,0,0,82,76.65q-.3.63-.45,1a.92.92,0,0,1-.42.57.62.62,0,0,1-.54,0,.8.8,0,0,1-.42-.43,1.28,1.28,0,0,1,0-.87c.05-.22.17-.59.35-1.11a7.5,7.5,0,0,1,.87-1.64A7.16,7.16,0,0,1,83,72.66a6.2,6.2,0,0,1,2.58-1.06,7.29,7.29,0,0,1,1.76-.07c.72,0,1.51.13,2.37.25s1.78.27,2.73.45l2.81.53a15.88,15.88,0,0,1,3.58-2.31A11.65,11.65,0,0,1,103,69.41Zm-6.1,15.53a1.06,1.06,0,0,0,.51-.39.18.18,0,0,0-.07-.27.9.9,0,0,0-.53,0,4,4,0,0,0-.87.22,2.62,2.62,0,0,0-1,.78c.47,0,.87,0,1.21-.09A2.29,2.29,0,0,0,96.91,84.94Zm5.74-14a4.53,4.53,0,0,0-2,.77,11.31,11.31,0,0,0-2,1.7l1.76.3a8.31,8.31,0,0,0,1.22.11,8.12,8.12,0,0,0,1.82-.18,4.26,4.26,0,0,0,1.25-.46,1.7,1.7,0,0,0,.64-.64.77.77,0,0,0,0-.66,1.23,1.23,0,0,0-.45-.51,2.75,2.75,0,0,0-.67-.31,3,3,0,0,0-.8-.13C103.18,71,102.91,71,102.65,71Z"/><path class="cls-5" d="M104.41,88.53a2,2,0,0,1,.73.2,1.49,1.49,0,0,1,.44.36.65.65,0,0,1,.18.35c0,.1,0,.15,0,.15a3.67,3.67,0,0,0-1.55.56,11.06,11.06,0,0,0-1.71,1.3,19.72,19.72,0,0,0-1.72,1.79,20.33,20.33,0,0,0-1.51,2.05,15.29,15.29,0,0,0-1.13,2.08,7.39,7.39,0,0,0-.59,1.83,5.77,5.77,0,0,0-.08.61,3.54,3.54,0,0,0,0,.73,1.42,1.42,0,0,0,.29.62,1.09,1.09,0,0,0,.71.35,2.34,2.34,0,0,0,1.46-.43,10.71,10.71,0,0,0,1.75-1.36,22.53,22.53,0,0,0,1.82-1.92c.6-.71,1.14-1.4,1.65-2.08a2.5,2.5,0,0,1-.81-.65,3.4,3.4,0,0,1-.5-.87,3.78,3.78,0,0,1-.26-1,7.17,7.17,0,0,1-.07-1A2.31,2.31,0,0,1,104,90.8a2.8,2.8,0,0,1,1.12-.87,3.33,3.33,0,0,1,1.4-.27,2.49,2.49,0,0,1,1.32.39,2.3,2.3,0,0,1,.89,1.14,3.84,3.84,0,0,1,.11,2c0,.19-.07.38-.11.57s-.09.38-.14.57a9.21,9.21,0,0,0,1.8-.35,9.78,9.78,0,0,0,1.73-.7,8.3,8.3,0,0,0,1.41-1,3.91,3.91,0,0,0,.9-1.08,3.33,3.33,0,0,1,.69-1c.23-.22.43-.31.59-.27s.27.19.31.46a3,3,0,0,1-.14,1.2,3.46,3.46,0,0,1-1,1.58,9.54,9.54,0,0,1-1.94,1.42,12.53,12.53,0,0,1-2.45,1,12.22,12.22,0,0,1-2.6.48,16,16,0,0,1-4.37,5.61,11.28,11.28,0,0,1-2.85,1.68,5.64,5.64,0,0,1-2.88.42,4.61,4.61,0,0,1-2.27-.81,4.07,4.07,0,0,1-1.22-1.42,5,5,0,0,1-.51-1.67c-.07-.57-.11-1.07-.13-1.5A6.47,6.47,0,0,1,93.92,97a12.51,12.51,0,0,1,.82-2.12,15.73,15.73,0,0,1,1.42-2.34,10.63,10.63,0,0,1,2-2.14A9.28,9.28,0,0,1,101,88.92,8.08,8.08,0,0,1,104.41,88.53Zm1,4.18a2.62,2.62,0,0,0,0,.67.56.56,0,0,0,.18.35.73.73,0,0,0,.3.16,2.69,2.69,0,0,1,.38.12c.12-.19.22-.37.32-.52l.25-.44a1.66,1.66,0,0,0,.23-1.21.6.6,0,0,0-.52-.44,1,1,0,0,0-.75.3A1.34,1.34,0,0,0,105.45,92.71Z"/><path class="cls-5" d="M119.58,88.53a2,2,0,0,1,.73.2,1.49,1.49,0,0,1,.44.36.84.84,0,0,1,.18.35q0,.15,0,.15a3.63,3.63,0,0,0-1.54.56,11.06,11.06,0,0,0-1.71,1.3,17.33,17.33,0,0,0-1.72,1.79,20.45,20.45,0,0,0-1.52,2.05,16.47,16.47,0,0,0-1.13,2.08,7.32,7.32,0,0,0-.58,1.83,4,4,0,0,0-.08.61,3,3,0,0,0,0,.73,1.32,1.32,0,0,0,.29.62,1.07,1.07,0,0,0,.71.35,2.31,2.31,0,0,0,1.45-.43,10.75,10.75,0,0,0,1.76-1.36,21,21,0,0,0,1.81-1.92c.6-.71,1.15-1.4,1.65-2.08a2.46,2.46,0,0,1-.8-.65,3.43,3.43,0,0,1-.51-.87,3.78,3.78,0,0,1-.26-1,8.94,8.94,0,0,1-.06-1,2.19,2.19,0,0,1,.48-1.36,2.77,2.77,0,0,1,1.11-.87,3.38,3.38,0,0,1,1.41-.27,2.49,2.49,0,0,1,1.32.39,2.24,2.24,0,0,1,.88,1.14,3.94,3.94,0,0,1,.12,2,5.78,5.78,0,0,1-.12.57c0,.19-.09.38-.14.57a9.48,9.48,0,0,0,3.53-1,8,8,0,0,0,1.42-1,4,4,0,0,0,.89-1.08,3.74,3.74,0,0,1,.69-1q.36-.33.6-.27c.16,0,.27.19.31.46a3.17,3.17,0,0,1-.14,1.2,3.55,3.55,0,0,1-1,1.58,9.82,9.82,0,0,1-1.94,1.42,12.53,12.53,0,0,1-2.45,1,12.33,12.33,0,0,1-2.6.48,16,16,0,0,1-1.87,3,15.24,15.24,0,0,1-2.51,2.56,11.06,11.06,0,0,1-2.84,1.68,5.67,5.67,0,0,1-2.88.42,4.57,4.57,0,0,1-2.27-.81,4,4,0,0,1-1.22-1.42A5,5,0,0,1,109,100c-.07-.57-.11-1.07-.13-1.5a6.47,6.47,0,0,1,.26-1.44,11,11,0,0,1,.82-2.12,16.52,16.52,0,0,1,1.41-2.34,10.91,10.91,0,0,1,2.05-2.14,9.4,9.4,0,0,1,2.74-1.49A8.13,8.13,0,0,1,119.58,88.53Zm1,4.18a2.22,2.22,0,0,0,0,.67.56.56,0,0,0,.18.35.62.62,0,0,0,.3.16,2.61,2.61,0,0,1,.37.12l.33-.52.24-.44a1.68,1.68,0,0,0,.24-1.21.61.61,0,0,0-.52-.44,1,1,0,0,0-.76.3A1.33,1.33,0,0,0,120.62,92.71Z"/><path class="cls-5" d="M145.91,80.94l.48.08a1.58,1.58,0,0,1,.66.26,1.21,1.21,0,0,1,.46.63,2,2,0,0,1-.09,1.14c0,.08-.25.46-.64,1.11s-.87,1.49-1.45,2.5L143.41,90c-.7,1.21-1.37,2.43-2,3.64s-1.2,2.35-1.7,3.43a16.14,16.14,0,0,0-1,2.67.59.59,0,0,0,0,.32,1.18,1.18,0,0,0,.1.42.62.62,0,0,0,.3.3.79.79,0,0,0,.6,0,6.31,6.31,0,0,0,2.18-1.2,16.46,16.46,0,0,0,2-2,27.56,27.56,0,0,0,1.8-2.35c.55-.82,1-1.59,1.46-2.29l1.07-1.76a2.73,2.73,0,0,1,.61-.82.91.91,0,0,1,.89-.14.66.66,0,0,1,.41.68,2,2,0,0,1-.37.78c-.24.4-.54.87-.91,1.42s-.75,1.12-1.18,1.74-.83,1.19-1.22,1.73-.72,1-1,1.37-.46.62-.53.7-.27.29-.59.61-.71.7-1.19,1.13-1,.88-1.61,1.34a14.41,14.41,0,0,1-1.86,1.21,7.59,7.59,0,0,1-1.92.74,3.1,3.1,0,0,1-1.77-.07,2,2,0,0,1-1.39-1.83,9.12,9.12,0,0,1,.41-3.33,17.64,17.64,0,0,1-1.51,1.64,15.63,15.63,0,0,1-2,1.67A12.39,12.39,0,0,1,129.1,103a5.33,5.33,0,0,1-2.38.41,2.65,2.65,0,0,1-1.22-.28,2.28,2.28,0,0,1-.71-.67,3.51,3.51,0,0,1-.46-.93c-.12-.36-.27-.74-.44-1.16a3.34,3.34,0,0,1-.1-1.8,10.19,10.19,0,0,1,.75-2.44A15.7,15.7,0,0,1,126,93.45a13.39,13.39,0,0,1,2.1-2.4,10.56,10.56,0,0,1,2.63-1.72,6.81,6.81,0,0,1,3-.6,5.6,5.6,0,0,1,2.93.76A3.11,3.11,0,0,1,138,91.25c.55-1,1.11-2.06,1.67-3s1.08-1.83,1.55-2.6.87-1.4,1.2-1.91l.64-1a5,5,0,0,1,.58-.67,5,5,0,0,1,.77-.61,3.75,3.75,0,0,1,.82-.42A2,2,0,0,1,145.91,80.94Zm-17.63,20.52a3.44,3.44,0,0,0,1.61-.44,13.1,13.1,0,0,0,2.18-1.35,19.72,19.72,0,0,0,2.2-1.94,10.53,10.53,0,0,0,1.67-2.19c.16-.4.32-.8.51-1.2s.36-.79.56-1.19a3.38,3.38,0,0,0,0-1,2.67,2.67,0,0,0-.26-1,1.92,1.92,0,0,0-.57-.69,1.41,1.41,0,0,0-.91-.23,2.32,2.32,0,0,0-1.19.52,11.06,11.06,0,0,0-1.41,1.26,19.57,19.57,0,0,0-1.46,1.75q-.75,1-1.38,2c-.42.69-.8,1.36-1.13,2a12.47,12.47,0,0,0-.74,1.76,3.24,3.24,0,0,0-.19,1.27A.53.53,0,0,0,128.28,101.46Z"/><path class="cls-5" d="M152.07,87.07a2.74,2.74,0,0,1,.82-.1,3.88,3.88,0,0,1,.87.09,1,1,0,0,1,.55.29q.18.2-.06.48a9.82,9.82,0,0,0-1.56,2.27,11.17,11.17,0,0,0-.8,2.18,8.7,8.7,0,0,0-.28,2,17.82,17.82,0,0,0,.07,1.84c.83-.31,1.66-.64,2.49-1s1.63-.73,2.39-1.13a17.52,17.52,0,0,0,2.13-1.35,9.59,9.59,0,0,0,1.71-1.65,1.06,1.06,0,0,1,.59-.42.74.74,0,0,1,.54.05.63.63,0,0,1,.28.46,1.5,1.5,0,0,1-.19.82,4.36,4.36,0,0,1-1.37,1.49,18.6,18.6,0,0,1-2.33,1.4c-.89.46-1.86.91-2.91,1.34l-3.15,1.3c0,.36.07.7.1,1a2.87,2.87,0,0,1,0,.83,7.43,7.43,0,0,1-.66,2.53,6.1,6.1,0,0,1-1.43,2,6.35,6.35,0,0,1-2.13,1.3,7.27,7.27,0,0,1-2.74.44,2.5,2.5,0,0,1-2.32-1.29,3.15,3.15,0,0,1-.38-1.09,2.81,2.81,0,0,1,0-.92A4.4,4.4,0,0,1,144,99.71a15.48,15.48,0,0,1,3.32-1.89c-.09-1-.15-2.07-.18-3.1a10.58,10.58,0,0,1,.26-2.87,8,8,0,0,1,1.08-2.61,5.4,5.4,0,0,1,1.35-1.41,3.45,3.45,0,0,1,1.3-.59ZM145.24,104a2,2,0,0,0,1.23-.4,2.39,2.39,0,0,0,.69-1,4.6,4.6,0,0,0,.28-1.43,12.76,12.76,0,0,0,0-1.75,13.94,13.94,0,0,0-2.31,1.37,2.37,2.37,0,0,0-1,1.41,1.81,1.81,0,0,0,.21,1.4A1,1,0,0,0,145.24,104Z"/><path class="cls-6" d="M0,66.2V61.75H1.58a3.83,3.83,0,0,0,2-.37c.33-.24.49-.94.49-2.1V41.91a3.54,3.54,0,0,0-.45-2.26,3.52,3.52,0,0,0-2.13-.42H0V34.8H18.9q6.15,0,9,1.78a6.13,6.13,0,0,1,2.87,5.6,6.58,6.58,0,0,1-1.67,4.5,10.45,10.45,0,0,1-4.82,2.91,12.2,12.2,0,0,1,6.09,2.85,6.92,6.92,0,0,1,2,5.15c0,3.07-1.07,5.28-3.21,6.61s-5.74,2-10.78,2ZM14.47,47.71h1.71a5.28,5.28,0,0,0,3.64-1A4.21,4.21,0,0,0,21,43.41a4,4,0,0,0-1.06-3.14,5.34,5.34,0,0,0-3.56-1H14.47Zm0,14.08h2c1.91,0,3.27-.39,4.09-1.19a5.2,5.2,0,0,0,1.24-3.9A4.77,4.77,0,0,0,20.5,53a5.91,5.91,0,0,0-4.07-1.18h-2Z"/><path class="cls-6" d="M48.64,43.25q6.24,0,9.87,3.2a11.06,11.06,0,0,1,3.62,8.71,11,11,0,0,1-3.6,8.67Q54.93,67,48.69,67t-9.84-3.15a11,11,0,0,1-3.56-8.69,11.12,11.12,0,0,1,3.56-8.73Q42.41,43.25,48.64,43.25Zm3.5,11.91q0-4.27-.79-5.91a2.78,2.78,0,0,0-2.71-1.63A2.72,2.72,0,0,0,46,49.25q-.78,1.64-.78,5.91c0,2.85.27,4.82.79,5.9a2.8,2.8,0,0,0,2.73,1.62,2.68,2.68,0,0,0,2.64-1.61Q52.14,59.47,52.14,55.16Z"/><path class="cls-6" d="M82.59,63a9.93,9.93,0,0,1-8.19,4.07q-4.23,0-6-1.83c-1.17-1.22-1.75-3.34-1.75-6.38V50.43a2.53,2.53,0,0,0-.44-1.78,2.67,2.67,0,0,0-1.78-.41h-.73V44.1H75.89V58.39a4.56,4.56,0,0,0,.74,2.85,2.7,2.7,0,0,0,2.25.94A3,3,0,0,0,81.42,61a5.21,5.21,0,0,0,.94-3.29V50.43a2.58,2.58,0,0,0-.42-1.79,2.68,2.68,0,0,0-1.75-.4h-.92V44.1h12.3V59.9A2.56,2.56,0,0,0,92,61.67a2.63,2.63,0,0,0,1.76.42h1V66.2H82.59Z"/><path class="cls-6" d="M124.3,59.9a2.62,2.62,0,0,0,.42,1.78,2.56,2.56,0,0,0,1.73.41h.94V66.2H112.6V62.09h.5a2.17,2.17,0,0,0,1.58-.42,2.78,2.78,0,0,0,.39-1.77v-8a4.53,4.53,0,0,0-.75-2.85,2.77,2.77,0,0,0-2.29-1,3.07,3.07,0,0,0-2.54,1.21,5.3,5.3,0,0,0-.94,3.3V59.9a2.63,2.63,0,0,0,.42,1.76,2.23,2.23,0,0,0,1.62.43h.46V66.2H96V62.09h1.12a2.61,2.61,0,0,0,1.77-.42,2.63,2.63,0,0,0,.42-1.77V50.43a2.61,2.61,0,0,0-.42-1.78,2.62,2.62,0,0,0-1.77-.41H96V44.1h12.3v3.43a9.93,9.93,0,0,1,3.57-3,10.35,10.35,0,0,1,4.63-1q4.23,0,6,1.82t1.77,6.36Z"/><path class="cls-6" d="M131.11,48.19H128V44.1h.18a5.13,5.13,0,0,0,4.33-2c1-1.34,1.79-3.54,2.28-6.58h5.53V44.1h6.51v4.09h-6.51v12a3.76,3.76,0,0,0,.4,2,1.37,1.37,0,0,0,1.25.63,1.48,1.48,0,0,0,1.46-1,12.38,12.38,0,0,0,.41-4V55.76h4v3c0,3-.63,5.19-1.91,6.47s-3.38,1.92-6.34,1.92a11.39,11.39,0,0,1-4.19-.7,6.9,6.9,0,0,1-2.92-2.06,5.7,5.7,0,0,1-1.08-2.07,16.22,16.22,0,0,1-.34-4Z"/><path class="cls-6" d="M162.77,59.9a2.62,2.62,0,0,0,.43,1.77,2.61,2.61,0,0,0,1.77.42h.8V66.2H150.41V62.09h.93a2.66,2.66,0,0,0,1.78-.42,2.63,2.63,0,0,0,.42-1.77V50.43a2.61,2.61,0,0,0-.42-1.78,2.67,2.67,0,0,0-1.78-.41h-.93V44.1h12.36Zm-9.46-21.79a4.16,4.16,0,0,1,1.22-3,4.06,4.06,0,0,1,3-1.23,4,4,0,0,1,3,1.25,4.25,4.25,0,0,1,0,6,4.29,4.29,0,0,1-6,0A4.12,4.12,0,0,1,153.31,38.11Z"/><path class="cls-6" d="M170.77,48.37h-3.26V44.1h3.26V42.84c0-3.14.83-5.4,2.47-6.8S177.53,34,181.17,34a11,11,0,0,1,6.07,1.48,4.46,4.46,0,0,1,2.28,3.89,3.36,3.36,0,0,1-1.13,2.6,4.2,4.2,0,0,1-2.92,1,3.89,3.89,0,0,1-2.58-.84,2.82,2.82,0,0,1-.58-3.66,3.67,3.67,0,0,1,1.24-1.16l-.69-.18a3.61,3.61,0,0,0-.52-.05,1.9,1.9,0,0,0-1.79.89,6.6,6.6,0,0,0-.54,3.18v3h4.07v4.27H180V59.83a2.77,2.77,0,0,0,.42,1.83,2.55,2.55,0,0,0,1.77.43h2V66.2H167.51V62.09h1.12a2.56,2.56,0,0,0,1.73-.41,2.63,2.63,0,0,0,.41-1.78Z"/><path class="cls-6" d="M204.81,63a9.93,9.93,0,0,1-8.18,4.07q-4.23,0-6-1.83c-1.17-1.22-1.75-3.34-1.75-6.38V50.43a2.54,2.54,0,0,0-.43-1.78,2.7,2.7,0,0,0-1.79-.41H186V44.1h12.16V58.39a4.49,4.49,0,0,0,.75,2.85,2.67,2.67,0,0,0,2.25.94A3,3,0,0,0,203.64,61a5.21,5.21,0,0,0,.94-3.29V50.43a2.58,2.58,0,0,0-.42-1.79,2.66,2.66,0,0,0-1.75-.4h-.91V44.1h12.29V59.9a2.56,2.56,0,0,0,.44,1.77,2.61,2.61,0,0,0,1.76.42h1V66.2H204.81Z"/><path class="cls-6" d="M221.47,41.11a2.59,2.59,0,0,0-.43-1.78,2.63,2.63,0,0,0-1.76-.42h-1V34.8h12.44V59.9a2.62,2.62,0,0,0,.42,1.78,2.63,2.63,0,0,0,1.75.41h.73V66.2H218.25V62.09h1a2.63,2.63,0,0,0,1.76-.42,2.56,2.56,0,0,0,.43-1.77Z"/></svg>