<?xml version="1.0" encoding="utf-8"?>
<!-- Generator: Adobe Illustrator 25.0.0, SVG Export Plug-In . SVG Version: 6.00 Build 0)  -->
<svg version="1.1" id="Capa_1" xmlns="http://www.w3.org/2000/svg" xmlns:xlink="http://www.w3.org/1999/xlink" x="0px" y="0px"
	 viewBox="0 0 160 77.4" style="enable-background:new 0 0 160 77.4;" xml:space="preserve">
<style type="text/css">
	.st0{fill:#FFFFFF;}
</style>
<g>
	<path class="st0" d="M87.2,22.5c0.1,0.2,0.5,0.3,0.8,0.5c0,0,0.1,0.1,0.1,0.1c0.3-0.2,0.7-0.3,0.9-0.6c0.8-0.9,1.5-1.8,2.2-2.7
		c0.8-1.1,1.6-2.1,2.4-3.3c1.1-1.7,1.6-3.7,1.9-5.8c0.4-2.4,0.3-4.8,0-7.2c-0.1-1-0.4-2-0.7-3.1c-0.1-0.5-0.9-0.8-1.3-0.5
		c-0.7,0.6-1.5,1.1-2.1,1.8c-1.1,1.3-1.8,2.8-2.3,4.3c-0.7,1.9-1.2,3.8-1.7,5.7c-0.8,2.9-0.9,5.9-0.8,9C86.7,21.4,87,22,87.2,22.5z
		 M88.3,16.4c0.4-3,1.2-5.9,2.3-8.7c0.5-1.3,1.2-2.5,1.9-3.7c0.3-0.6,0.9-1,1.4-1.4c0.4,3.5,0.2,6.9-0.9,10.2c-1,2.8-3,4.9-4.8,7.2
		c-0.1,0-0.2-0.1-0.2-0.1C88.1,18.7,88.2,17.6,88.3,16.4z"/>
	<path class="st0" d="M77.2,25.5c2.2,0.8,4.4,1.1,6.7,1.2c0.3,0,0.6-0.2,0.8-0.4c0.2-0.3,0.4-0.6,0-1.1c-0.8-1-1.7-1.3-2.9-1.4
		c-2.5,0-4.9-0.7-7.2-1.7c-1.6-0.6-2.9-1.6-3.9-3.1c-0.6-0.9-0.3-1.9-0.3-2.9c0-0.1,0.4-0.3,0.6-0.2c1.3,0.4,2.6,0.7,3.9,1.2
		c3.2,1.3,6.1,3,8.7,5.2c0.4,0.3,0.5,1,0.9,1.4c0.3,0.5,0.7,1,1.1,1.5c0.7-1,0.6-1.7,0.1-2.6c-1-1.6-2.5-2.6-3.9-3.7
		c-2.6-1.8-5.4-3.5-8.3-4.6c-1.1-0.4-2.2-0.8-3.3-1.1c-1.1-0.3-1.5,0-1.7,1.1c-0.5,2.8,0.6,4.9,2.4,6.9
		C72.5,23.3,74.7,24.6,77.2,25.5z"/>
	<path class="st0" d="M76.1,11.2c0.6,1.2,1.3,2.2,2.3,3c1,0.7,2,1.3,3,1.9c0.3,0.2,0.8,0.4,1.2,0.4c0.6,0,1.2-0.1,1.7-0.3
		c0.9-0.4,1-0.7,0.8-1.7c-0.1-0.4-0.2-0.8-0.3-1.2c-0.5-2.7-2.1-4.7-3.9-6.6c-1.2-1.3-2.6-2.3-3.6-3.8c-0.1-0.1-0.3-0.2-0.5-0.1
		c-0.9,0.4-1.5,1-1.8,2c-0.5,1.4-0.2,2.8,0.2,4.2C75.5,9.8,75.8,10.5,76.1,11.2z M76.7,5.5c0.5,0.5,1,1,1.5,1.5
		C79.1,8,80,8.9,80.9,9.9c0.6,0.6,1,1.3,1.3,2.1c0.4,1,0.8,2,1.1,3.1c-1.7-1-3.4-1.8-4.6-3.3c-1.4-1.8-2-3.8-2.2-6.1
		C76.6,5.6,76.6,5.6,76.7,5.5z"/>
	<g>
		<path class="st0" d="M67.6,50.3c0.5,0.1,0.9,0.2,1.2,0.2c0.4,0.1,0.6,0.1,0.8,0.1c0.5,0,0.9,0,1.2-0.1c0.4-0.1,0.6-0.2,0.9-0.3
			c0.2-0.1,0.4-0.3,0.4-0.4c0.1-0.2,0.1-0.3,0-0.5c-0.1-0.1-0.2-0.3-0.3-0.3c-0.1-0.1-0.3-0.2-0.5-0.2c-0.2-0.1-0.4-0.1-0.5-0.1
			c-0.2,0-0.4,0-0.6,0c-0.5,0-0.9,0.2-1.4,0.5C68.5,49.4,68,49.8,67.6,50.3z"/>
		<path class="st0" d="M83.4,62.6c-0.2,0-0.3,0.1-0.5,0.2c-0.2,0.2-0.3,0.4-0.3,0.7c0,0.2,0,0.4,0,0.5c0,0.1,0.1,0.2,0.1,0.2
			c0.1,0.1,0.1,0.1,0.2,0.1c0.1,0,0.2,0,0.3,0.1c0.1-0.1,0.2-0.2,0.2-0.4c0.1-0.1,0.1-0.2,0.2-0.3c0.2-0.4,0.2-0.6,0.2-0.8
			C83.7,62.7,83.6,62.6,83.4,62.6z"/>
		<path class="st0" d="M73,62.6c-0.2,0-0.3,0.1-0.5,0.2c-0.2,0.2-0.3,0.4-0.3,0.7c0,0.2,0,0.4,0,0.5c0,0.1,0.1,0.2,0.1,0.2
			c0.1,0.1,0.1,0.1,0.2,0.1c0.1,0,0.2,0,0.3,0.1c0.1-0.1,0.2-0.2,0.2-0.4c0.1-0.1,0.1-0.2,0.2-0.3c0.2-0.4,0.2-0.6,0.2-0.8
			C73.3,62.7,73.2,62.6,73,62.6z"/>
		<path class="st0" d="M93.3,62c-0.2-0.1-0.4-0.2-0.6-0.2c-0.2,0-0.5,0.1-0.8,0.4c-0.3,0.2-0.6,0.5-1,0.9c-0.3,0.3-0.7,0.8-1,1.2
			c-0.3,0.5-0.7,0.9-0.9,1.4c-0.3,0.5-0.5,0.9-0.8,1.4c-0.2,0.5-0.4,0.9-0.5,1.2c-0.1,0.4-0.2,0.6-0.1,0.9c0,0.2,0.1,0.3,0.3,0.4
			c0.3,0,0.6-0.1,1.1-0.3c0.5-0.2,1-0.5,1.5-0.9c0.5-0.4,1-0.8,1.5-1.3c0.5-0.5,0.9-1,1.1-1.5c0.1-0.3,0.2-0.5,0.3-0.8
			c0.1-0.3,0.3-0.5,0.4-0.8c0-0.2,0-0.4,0-0.7c0-0.2-0.1-0.5-0.2-0.6C93.6,62.3,93.5,62.1,93.3,62z"/>
		<path class="st0" d="M98.7,70c-0.1,0.5,0,0.8,0.1,1c0.2,0.2,0.4,0.3,0.6,0.3c0.4,0,0.6-0.1,0.8-0.3c0.2-0.2,0.4-0.4,0.5-0.7
			c0.1-0.3,0.2-0.6,0.2-1c0-0.4,0-0.8,0-1.2c-0.6,0.3-1.2,0.6-1.6,0.9C99,69.4,98.8,69.7,98.7,70z"/>
		<path class="st0" d="M128,65.6c0-0.1,0-0.2-0.1-0.4c-0.4-1-1.1-2-1.8-3.1c-0.3,0-0.7-0.1-1.2-0.2c-0.1-0.4-0.2-0.7-0.3-1
			c-0.1-0.4-0.2-0.8-0.3-1.1c0-0.1,0-0.2-0.1-0.4c0-0.3-0.1-0.5-0.1-0.8c0-0.1,0-0.3,0-0.4c0-0.3,0-0.5-0.1-0.7c0-0.1,0-0.2,0-0.3
			c0-0.3,0-0.6,0-1c0,0,0-0.1,0-0.1c0-0.4,0-0.8,0-1.2c0-0.1,0-0.2,0-0.3c0-0.4,0-0.8,0.1-1.2c0-0.1,0-0.2,0-0.3c0,0,0-0.1,0-0.1
			c0-0.1,0-0.1,0-0.2c0-0.1,0-0.2,0-0.3c0-0.1,0-0.1,0-0.2c0-0.1-0.1-0.2-0.1-0.3c0,0,0-0.1-0.1-0.1c-0.1-0.1-0.2-0.2-0.3-0.3
			c-1.8-0.2-3.3-0.5-4.9-0.7c-0.7-0.1-1.3-0.1-1.9-0.2c-1.1-0.1-2.1-0.1-3.1-0.2c-0.7,0-1.6-0.3-2.1-0.1c-1,0.3-2.3,0.1-3.5-0.2
			c-1.9-0.5-2.5-0.4-3.2,0.6c-0.2,0.4-0.8,0.6-1.4,0.6c-0.7,0-1.5-0.2-2.3-0.3c-1.2-0.2-2.5-0.6-3.3,0c-1,0.7-1.9,0.5-3.5-0.4
			c-1.3,0.4-2.9,0-4.5-0.3c-0.3-0.1-0.6-0.1-0.8-0.2c-1.6-0.2-2.1,0.5-2.4,1.4c-0.4,0.8-1.3,0.4-0.8-0.9c-0.2-0.3-0.4-0.6-0.6-0.9
			c-1.6,0.6-3.7-0.1-5.8-0.5c0.2-0.6,0.5-1,0.5-1.6c0-0.4-0.1-0.8-0.3-1.3c0-0.1-0.6-0.5-0.8-0.4c-1.3,0.2-2.8-0.1-4.3-0.4
			c-1.3-0.3-2.6-0.3-2.9,0.7c-0.1,0.3-0.2,0.7-0.4,1c0.3,0,0.5,0.1,0.7,0.1c0.5,0.1,0.9,0.2,1.2,0.4c0.3,0.2,0.5,0.4,0.7,0.7
			c0.1,0.3,0.2,0.6,0.1,0.9c-0.1,0.3-0.2,0.6-0.5,0.8c-0.2,0.2-0.6,0.5-0.9,0.6c-0.4,0.2-0.8,0.3-1.4,0.4c-0.5,0.1-1.1,0.1-1.7,0.1
			c-0.5,0-0.9,0-1.4-0.1c-0.5-0.1-1-0.1-1.5-0.2c-0.4,0.5-0.7,1-1.1,1.5c-0.3,0.5-0.6,1-0.9,1.5c-0.3,0.5-0.5,0.9-0.7,1.4
			c-0.2,0.4-0.3,0.7-0.4,1L63,58.4h0.8c0.3-0.4,0.7-0.8,1.1-1.1c0.5-0.3,1-0.5,1.7-0.6c0.3,0,0.5,0,0.7,0.1c0.2,0.1,0.3,0.3,0.4,0.4
			c0.1,0.2,0.1,0.4,0.1,0.6c0,0.2-0.1,0.4-0.2,0.6c-0.1,0.2-0.3,0.4-0.5,0.6c-0.2,0.2-0.5,0.3-0.9,0.3c-0.3,0-0.6,0.1-0.9,0.1
			c-0.3,0-0.7,0-1.1,0c-0.2,0.4-0.4,0.8-0.5,1.2c-0.1,0.4-0.2,0.6-0.2,0.8c0,0.2-0.1,0.4-0.3,0.5c-0.1,0.2-0.3,0.3-0.5,0.3
			c-0.2,0-0.3,0-0.4-0.2c-0.1-0.1-0.1-0.4,0-0.8c0.1-0.2,0.2-0.5,0.3-0.8c0.1-0.3,0.2-0.7,0.4-1h-0.6c-0.9,2.4-1.7,4.4-2.5,6
			c-0.8,1.6-1.5,3-2.2,4.1c-0.7,1.1-1.3,1.9-1.9,2.5c-0.6,0.6-1.1,1.1-1.7,1.4c-0.5,0.3-1,0.5-1.5,0.6c-0.5,0.1-0.9,0.1-1.3,0.2
			c-0.2,0-0.6,0-0.9-0.1c-0.4-0.1-0.8-0.2-1.2-0.5c-0.2-0.1-0.3-0.2-0.3-0.4c0-0.2,0-0.3,0-0.4c0.1-0.1,0.1-0.2,0.3-0.3s0.3,0,0.4,0
			c0.1,0,0.2,0.1,0.3,0c0.1,0,0.3,0,0.5-0.1c0.2,0,0.4-0.1,0.6-0.1c0.2-0.1,0.4-0.1,0.6-0.2c0.7-0.3,1.4-0.8,2-1.6
			c0.6-0.8,1.2-1.8,1.8-2.9c0.6-1.2,1.1-2.4,1.6-3.8c0.5-1.4,1.1-2.8,1.7-4.2c-0.8,0.1-1.5,0.3-2.3,0.5c-0.7,0.2-1.5,0.5-2.2,1
			c-0.2,0.1-0.3,0.1-0.4,0.1c-0.1,0-0.2-0.1-0.2-0.2c0-0.1,0-0.2,0.1-0.4c0.1-0.2,0.2-0.3,0.4-0.4c0.6-0.5,1.4-0.9,2.3-1.1
			c0.9-0.2,1.8-0.4,2.7-0.5l0.3-0.8c0.2-0.5,0.5-1,0.7-1.6c0.3-0.6,0.6-1.2,1-1.8c0.4-0.6,0.8-1.2,1.2-1.9c0.4-0.6,0.9-1.2,1.4-1.8
			c-1-0.2-2-0.4-3-0.5c-0.9-0.1-1.8-0.1-2.5,0c-0.5,0.1-0.9,0.3-1.2,0.5c-0.3,0.2-0.6,0.5-0.9,0.8c-0.2,0.3-0.4,0.6-0.6,0.9
			c-0.1,0.3-0.2,0.5-0.3,0.7c-0.1,0.2-0.2,0.3-0.3,0.4c-0.1,0.1-0.3,0.1-0.4,0c-0.1,0-0.2-0.1-0.3-0.3c-0.1-0.1-0.1-0.3,0-0.6
			c0-0.2,0.1-0.4,0.2-0.8c0.1-0.4,0.3-0.7,0.6-1.1c0.3-0.4,0.6-0.8,1.1-1.1c0.5-0.3,1-0.6,1.8-0.7c0.3-0.1,0.7-0.1,1.2,0
			c0.5,0,1,0.1,1.6,0.2c0.6,0.1,1.2,0.2,1.9,0.3c0.7,0.1,1.3,0.2,1.9,0.4c0.7-0.6,1.6-1.2,2.5-1.6c0.8-0.4,1.6-0.6,2.5-0.7
			c0,0,0,0,0-0.1c-0.3,0-0.7,0-1,0c-1.3,0.1-2.5,0.1-4-0.9c-0.1-0.1-0.3-0.1-0.4,0c-1.2,0.3-2.6,0-4.1-0.4c-1.8-0.4-2.4-0.3-2.7,0.9
			c-0.1,0.3-0.1,0.6-0.2,0.8c-0.2,0.2-0.4,0.4-0.8,0.4c-0.8,0-1.7-0.1-2.5-0.4c-1.6-0.4-2.6-0.3-3,0.7c-0.1,0.4-0.4,0.7-0.6,1
			c-0.1-0.1-0.2-0.2-0.2-0.3c-0.3-0.1-0.7-0.1-1-0.2c-0.2,0-0.4,0-0.5,0c0,0,0,0,0,0c-0.3,0-0.5,0-0.8-0.1c-0.2,0-0.4-0.1-0.6-0.1
			c-0.2,0-0.4-0.1-0.6-0.1c-0.1,0-0.2,0-0.3,0c-0.1,0-0.3,0-0.4-0.1c-0.1,0-0.2,0-0.3,0c-0.1,0-0.2,0-0.4,0c0,0-0.1,0-0.1,0
			c-0.1,0-0.1,0-0.2,0c-0.1,0-0.1,0-0.2,0c-0.1,0-0.2,0-0.3,0.1c-0.1,0-0.1,0-0.2,0.1c-0.1,0-0.2,0.1-0.2,0.2c0,0-0.1,0.1-0.1,0.1
			c-0.1,0.1-0.2,0.2-0.2,0.4c-0.1,0.1-0.1,0.2-0.2,0.3c-0.5,0.9-1,1.8-1.5,2.6c-0.1,0.1-0.1,0.2-0.2,0.3c-0.1,0.1-0.1,0.2-0.2,0.3
			c-0.2-0.1-0.4-0.1-0.6-0.2c0.3-1.3,0.4-2.8,2-3.6c-0.4-0.1-0.9-0.1-1.3-0.2c-0.1,0-0.2,0-0.2,0c-0.4,0-0.7-0.1-1.1-0.1
			c0,0-0.1,0-0.1,0c-0.1,0-0.1,0-0.2,0c-0.2,0-0.3,0-0.4,0c-0.1,0-0.2,0-0.3,0c-0.1,0-0.3,0.1-0.4,0.1c-0.1,0-0.2,0-0.2,0.1
			c-0.1,0-0.2,0.1-0.4,0.2c-0.1,0-0.1,0.1-0.2,0.1c-0.2,0.1-0.3,0.2-0.4,0.4c-0.7,0.8-1.4,1.7-1.7,2.8c-1.5,4.4-2.9,8.8-4.1,13.3
			c-0.3,1.1-0.5,2.2-0.6,3.3c0,0,0,0,0,0c0,0,0,0,0,0c-0.1,1.3,0,2.7,0.2,4.2c0.1,0.6,0.5,1,1.3,1.1c1.2,0.2,2.4,0.2,3.6,0.5
			c1.5,0.4,1.9-0.2,2.2-0.9c0.6-1.3,1.2-2.6,1.8-3.9c0.2-0.4,0.4-0.8,0.6-1.2l0,0c0,0.6,0,1.1-0.1,1.7l0,0.1c0,0.4,0,0.8,0,1.1
			l0,0.1c-0.3,1.1-0.1,2.3,0.7,3.7c0.1,0.2,0.5,0.4,0.8,0.6c0.2,0.1,0.5,0.2,0.7,0.2c0.2,0.1,0.4,0.1,0.6,0.2
			c0.8,0.1,1.7,0.2,2.5,0.3c1,0.1,2.4,0.6,2.9,0.3c1.3-0.7,3.2,0.1,4.8,0.2c0.8,0,1.4,0.1,1.7-0.4c0.2-0.4,0.5-0.7,0.7-1.2
			c0.2-0.4,0.5-0.5,1.1-0.4c1.7,0.3,3.3,0.4,4.9,0.6c0.8,0.1,1.7,0.2,2.5,0.3c2,0.4,3.7,0.5,4.7-0.5c0.5-0.6,1.4-0.6,2.5-0.4
			c0.9,0.1,1.8,0.3,2.6,0.4c0.6,0.1,1.3,0.3,1.6,0.2c0.5-0.2,0.9-0.5,1.1-0.9c0.4-0.7,0.9-1,2.3-0.7c0.4,0.1,1,0.1,1.3-0.1
			c0.5-0.3,0.9-0.8,1.4-1.2c0.2-0.1,0.5-0.2,0.8-0.2c1.7,0.2,3.4,0.6,5,0.8c0.7,0.1,1.4,0.1,2.1,0.1c0.4,0,0.7,0,1.1,0
			c0.2,0,0.4,0,0.7,0c0.6,0,1.2,0,1.8,0.1c2.1,0.5,3.8,0.5,4.5-0.8c0.1-0.2,0.4-0.4,0.7-0.4c0.5,0.1,1,0.2,1.5,0.3
			c0.8,0.2,1.6,0.3,2.5,0.5c0,0,0,0,0,0c0,0,0,0,0,0c0,0,0,0,0,0c0,0,0,0,0.1,0c0.5,0.1,1.1,0.3,1.6,0.4c1,0.2,2,0.3,3.1,0.4
			c0.2,0,0.4,0.1,0.6,0.1c0.2,0,0.3,0.1,0.5,0.1c0.1,0,0.2,0,0.2,0c0.1,0,0.3,0,0.4,0.1c0.1,0,0.1,0,0.2,0c0,0,0.1,0,0.1,0
			c0.1,0,0.3,0,0.4,0c0.8-0.2,1.2-0.8,1.8-1.2c0.1,0,0.1-0.1,0.2-0.2c0,0,0.1-0.1,0.1-0.1c0,0,0,0,0.1,0c0,0,0.1-0.1,0.1-0.1
			c0,0,0.1,0,0.1,0c0,0,0.1,0,0.1,0c0.9,0,1.8,0.2,2.7,0.3c0.3,0,0.6,0.1,0.9,0.1c0.2,0,0.5,0.1,0.7,0.1c0.1,0,0.2,0,0.3,0
			c0.2,0,0.3,0,0.5,0.1c0.1,0,0.2,0,0.3,0c0.1,0,0.2,0,0.3,0c0.1,0,0.1,0,0.2,0c0.7,0,1.5-0.3,1.7-0.8c0.8-1.5,1.4-3.2,2.2-4.8
			c0-0.1,0.1-0.1,0.1-0.2c0,0,0,0,0.1-0.1c0,0,0.1-0.1,0.1-0.1c0,0,0.1,0,0.1-0.1c0,0,0.1-0.1,0.1-0.1c0,0,0.1,0,0.1,0
			c0.1,0,0.1,0,0.2,0c0.2,0,0.5,0.1,0.7,0.1c0.2,0,0.3,0.1,0.5,0.1c0.1,0,0.1,0,0.2,0c0.1,0,0.2,0,0.4,0c0.1,0,0.1,0,0.2,0
			c0.1,0,0.2,0,0.2,0c0,0,0.1,0,0.1,0c0,0,0,0,0.1,0c0.1,0,0.3,0,0.4-0.1c0,0,0,0,0.1,0c0.1,0,0.2-0.1,0.3-0.2c0,0,0,0,0,0
			c0.1-0.1,0.1-0.2,0.2-0.3c0,0,0,0,0-0.1c0-0.1,0.1-0.3,0.1-0.4c0,0,0,0,0-0.1l0.1-0.1c0-0.1,0-0.2,0.1-0.3c0-0.1,0.1-0.2,0.1-0.3
			c0,0,0-0.1,0-0.1C128,65.8,128,65.7,128,65.6C128,65.6,128,65.6,128,65.6z M110.7,63c-0.2,0.4-0.5,0.7-0.9,1c-0.5,0.3-1,0.6-1.6,1
			c-0.6,0.3-1.3,0.6-2,0.9c-0.7,0.3-1.4,0.6-2.2,0.9c0,0.2,0,0.5,0.1,0.7c0,0.2,0,0.4,0,0.6c-0.1,0.6-0.2,1.2-0.5,1.7
			c-0.2,0.5-0.6,1-1,1.4c-0.4,0.4-0.9,0.7-1.5,0.9c-0.6,0.2-1.2,0.3-1.9,0.3c-0.4,0-0.7-0.1-1-0.3c-0.3-0.2-0.5-0.4-0.6-0.6
			c-0.1-0.2-0.2-0.5-0.3-0.7c0-0.3,0-0.5,0-0.6c0.2-0.7,0.5-1.3,1.2-1.8c0.6-0.5,1.4-0.9,2.3-1.3c0-0.6-0.1-1.1-0.1-1.7
			c-0.2,0.3-0.4,0.5-0.6,0.8c-0.3,0.4-0.5,0.7-0.7,0.9c-0.2,0.3-0.3,0.4-0.4,0.5c0,0.1-0.2,0.2-0.4,0.4c-0.2,0.2-0.5,0.5-0.8,0.8
			c-0.3,0.3-0.7,0.6-1.1,0.9c-0.4,0.3-0.8,0.6-1.3,0.8c-0.4,0.2-0.9,0.4-1.3,0.5c-0.4,0.1-0.8,0.1-1.2,0c-0.6-0.2-0.9-0.6-1-1.3
			c-0.1-0.6,0-1.4,0.3-2.3c-0.3,0.3-0.6,0.7-1,1.1c-0.4,0.4-0.9,0.8-1.4,1.1c-0.5,0.3-1,0.6-1.6,0.9c-0.6,0.2-1.1,0.3-1.6,0.3
			c-0.4,0-0.6-0.1-0.8-0.2c-0.2-0.1-0.4-0.3-0.5-0.5c-0.1-0.2-0.2-0.4-0.3-0.6c-0.1-0.2-0.2-0.5-0.3-0.8c-0.1-0.3-0.2-0.7-0.1-1.2
			c0.1-0.5,0.3-1.1,0.5-1.7c0,0,0-0.1,0.1-0.1c-0.4,0.1-0.7,0.1-1.1,0.2c-0.3,0.7-0.8,1.4-1.3,2.1c-0.5,0.7-1.1,1.3-1.7,1.8
			c-0.6,0.5-1.3,0.9-1.9,1.2c-0.7,0.3-1.3,0.4-2,0.3c-0.7-0.1-1.2-0.3-1.6-0.6c-0.4-0.3-0.7-0.6-0.8-1c-0.2-0.4-0.3-0.7-0.3-1.1
			c0-0.4-0.1-0.7-0.1-1c0-0.2,0.1-0.5,0.2-1c0.1-0.2,0.2-0.5,0.3-0.8c-0.4,0.1-0.7,0.1-1.1,0.2c-0.3,0.7-0.8,1.4-1.3,2.1
			c-0.5,0.7-1.1,1.3-1.7,1.8c-0.6,0.5-1.3,0.9-1.9,1.2c-0.7,0.3-1.3,0.4-2,0.3c-0.7-0.1-1.2-0.3-1.6-0.6c-0.4-0.3-0.7-0.6-0.8-1
			c-0.2-0.4-0.3-0.7-0.3-1.1c0-0.4-0.1-0.7-0.1-1c0-0.2,0.1-0.5,0.2-1c0.1-0.4,0.3-0.9,0.6-1.4c0.3-0.5,0.6-1.1,1-1.6
			c0.4-0.5,0.9-1,1.4-1.5c0.5-0.4,1.2-0.8,1.9-1c0.7-0.2,1.5-0.3,2.4-0.3c0.2,0,0.4,0.1,0.5,0.1c0.1,0.1,0.2,0.2,0.3,0.2
			c0.1,0.1,0.1,0.2,0.1,0.2c0,0.1,0,0.1,0,0.1c-0.3,0-0.7,0.2-1.1,0.4c-0.4,0.2-0.8,0.5-1.2,0.9c-0.4,0.4-0.8,0.8-1.2,1.2
			c-0.4,0.5-0.7,0.9-1,1.4c-0.3,0.5-0.6,1-0.8,1.4c-0.2,0.5-0.3,0.9-0.4,1.3c0,0.1,0,0.2-0.1,0.4c0,0.2,0,0.3,0,0.5
			c0,0.2,0.1,0.3,0.2,0.4c0.1,0.1,0.3,0.2,0.5,0.2c0.3,0,0.6-0.1,1-0.3c0.4-0.2,0.8-0.5,1.2-0.9c0.4-0.4,0.8-0.8,1.2-1.3
			c0.4-0.5,0.8-1,1.1-1.4c-0.2-0.1-0.4-0.3-0.6-0.4c-0.1-0.2-0.3-0.4-0.3-0.6C71,64.3,71,64.1,71,63.8c0-0.2,0-0.5,0-0.7
			c0-0.4,0.1-0.7,0.3-0.9c0.2-0.3,0.5-0.5,0.8-0.6c0.3-0.1,0.6-0.2,1-0.2c0.3,0,0.6,0.1,0.9,0.3c0.3,0.2,0.5,0.4,0.6,0.8
			c0.1,0.3,0.2,0.8,0.1,1.4c0,0.1-0.1,0.3-0.1,0.4c0,0.1-0.1,0.3-0.1,0.4c0.4,0,0.8-0.1,1.2-0.2c0,0,0,0,0,0c0.2-0.3,0.4-0.6,0.6-1
			c0.4-0.5,0.9-1,1.4-1.5c0.5-0.4,1.2-0.8,1.9-1c0.7-0.2,1.5-0.3,2.4-0.3c0.2,0,0.4,0.1,0.5,0.1c0.1,0.1,0.2,0.2,0.3,0.2
			c0.1,0.1,0.1,0.2,0.1,0.2c0,0.1,0,0.1,0,0.1c-0.3,0-0.7,0.2-1.1,0.4c-0.4,0.2-0.8,0.5-1.2,0.9c-0.4,0.4-0.8,0.8-1.2,1.2
			c-0.4,0.5-0.7,0.9-1,1.4c-0.3,0.5-0.6,1-0.8,1.4c-0.2,0.5-0.3,0.9-0.4,1.3c0,0.1,0,0.2-0.1,0.4c0,0.2,0,0.3,0,0.5
			c0,0.2,0.1,0.3,0.2,0.4c0.1,0.1,0.3,0.2,0.5,0.2c0.3,0,0.6-0.1,1-0.3c0.4-0.2,0.8-0.5,1.2-0.9c0.4-0.4,0.8-0.8,1.2-1.3
			c0.4-0.5,0.8-1,1.1-1.4c-0.2-0.1-0.4-0.3-0.6-0.4c-0.1-0.2-0.3-0.4-0.3-0.6c-0.1-0.2-0.1-0.4-0.2-0.7c0-0.2,0-0.5,0-0.7
			c0-0.4,0.1-0.7,0.3-0.9c0.2-0.3,0.5-0.5,0.8-0.6c0.3-0.1,0.6-0.2,1-0.2c0.3,0,0.6,0.1,0.9,0.3c0.3,0.2,0.5,0.4,0.6,0.8
			c0.1,0.3,0.2,0.8,0.1,1.4c0,0.1-0.1,0.3-0.1,0.4c0,0.1-0.1,0.3-0.1,0.4c0.4,0,0.8-0.1,1.2-0.2c0,0,0.1,0,0.1,0
			c0.1-0.1,0.1-0.2,0.2-0.3c0.4-0.6,0.9-1.2,1.4-1.6c0.5-0.5,1.1-0.9,1.8-1.2c0.7-0.3,1.3-0.4,2.1-0.4c0.9,0,1.6,0.2,2,0.5
			c0.4,0.3,0.7,0.7,0.9,1.2c0.4-0.7,0.8-1.4,1.1-2.1c0.4-0.7,0.7-1.3,1.1-1.8c0.3-0.5,0.6-1,0.8-1.3c0.2-0.3,0.4-0.6,0.4-0.7
			c0.1-0.2,0.2-0.3,0.4-0.5c0.2-0.2,0.3-0.3,0.5-0.4c0.2-0.1,0.4-0.2,0.6-0.3c0.2-0.1,0.3-0.1,0.5-0.1c0.1,0,0.2,0,0.3,0.1
			c0.2,0,0.3,0.1,0.5,0.2c0.1,0.1,0.2,0.2,0.3,0.4c0.1,0.2,0,0.5-0.1,0.8c0,0.1-0.2,0.3-0.4,0.8c-0.3,0.5-0.6,1-1,1.7
			c-0.4,0.7-0.8,1.4-1.3,2.3c-0.5,0.8-0.9,1.7-1.4,2.5c-0.4,0.8-0.8,1.6-1.2,2.3c-0.3,0.7-0.6,1.3-0.7,1.8c0,0,0,0.1,0,0.2
			c0,0.1,0,0.2,0.1,0.3c0,0.1,0.1,0.2,0.2,0.2c0.1,0,0.2,0,0.4,0c0.5-0.2,1-0.4,1.5-0.8c0.5-0.4,0.9-0.9,1.4-1.4
			c0.4-0.5,0.8-1,1.2-1.6c0.4-0.6,0.7-1.1,1-1.6c0.1-0.1,0.1-0.2,0.1-0.2c0-0.2,0-0.3,0.1-0.5c0.2-0.8,0.4-1.4,0.7-1.8
			c0.3-0.4,0.6-0.8,0.9-1c0.3-0.2,0.6-0.3,0.9-0.4c0.3-0.1,0.5-0.1,0.6-0.1c0.2,0,0.3-0.1,0.6-0.1c0.2,0,0.4,0,0.6,0.1
			c0.2,0,0.3,0.1,0.4,0.2c0.1,0.1,0.1,0.2,0,0.3c-0.5,0.5-0.8,1-1.1,1.6c-0.2,0.5-0.4,1-0.6,1.5c-0.1,0.5-0.2,0.9-0.2,1.4
			c0,0.5,0,0.9,0,1.3c0.6-0.2,1.1-0.4,1.7-0.7c0.6-0.2,1.1-0.5,1.6-0.8c0.5-0.3,1-0.6,1.5-0.9c0.5-0.3,0.8-0.7,1.2-1.1
			c0.1-0.2,0.3-0.2,0.4-0.3c0.1,0,0.3,0,0.4,0c0.1,0.1,0.2,0.2,0.2,0.3C110.9,62.6,110.8,62.8,110.7,63z"/>
		<path class="st0" d="M66.4,58.2c0.2-0.1,0.3-0.2,0.3-0.3c0-0.1,0-0.1,0-0.2c-0.1,0-0.2-0.1-0.4,0c-0.2,0-0.4,0.1-0.6,0.2
			c-0.2,0.1-0.5,0.3-0.7,0.5c0.3,0,0.6,0,0.8-0.1C66.1,58.3,66.3,58.2,66.4,58.2z"/>
	</g>
	<g>
		<path class="st0" d="M0,45.3v-3.1h1.1c0.7,0,1.2-0.1,1.4-0.3c0.2-0.2,0.3-0.6,0.3-1.4v-0.2V28.7c0-0.8-0.1-1.3-0.3-1.5
			C2.3,27,1.8,26.9,1,26.9H0v-3h12.9c2.8,0,4.9,0.4,6.2,1.2c1.3,0.8,2,2.1,2,3.8c0,1.2-0.4,2.2-1.1,3.1c-0.8,0.9-1.9,1.5-3.3,2
			c1.9,0.4,3.3,1.1,4.2,2c0.9,0.9,1.4,2.1,1.4,3.5c0,2.1-0.7,3.6-2.2,4.5c-1.5,0.9-3.9,1.4-7.4,1.4H0z M9.9,32.7h1.2
			c1.1,0,2-0.2,2.5-0.7c0.5-0.5,0.8-1.2,0.8-2.2c0-1-0.2-1.7-0.7-2.2c-0.5-0.4-1.3-0.6-2.4-0.6H9.9V32.7z M9.9,42.3h1.4
			c1.3,0,2.2-0.3,2.8-0.8c0.6-0.5,0.8-1.4,0.8-2.7c0-1.1-0.3-2-0.9-2.5c-0.6-0.5-1.5-0.8-2.8-0.8H9.9V42.3z"/>
		<path class="st0" d="M33.3,29.6c2.9,0,5.1,0.7,6.8,2.2c1.7,1.5,2.5,3.5,2.5,6c0,2.5-0.8,4.5-2.5,5.9c-1.6,1.5-3.9,2.2-6.7,2.2
			c-2.9,0-5.1-0.7-6.7-2.2c-1.6-1.4-2.4-3.4-2.4-5.9c0-2.5,0.8-4.5,2.4-6C28.2,30.4,30.5,29.6,33.3,29.6z M35.7,37.8
			c0-2-0.2-3.3-0.5-4c-0.4-0.7-1-1.1-1.9-1.1c-0.9,0-1.5,0.4-1.8,1.1c-0.4,0.7-0.5,2.1-0.5,4c0,2,0.2,3.3,0.5,4
			c0.4,0.7,1,1.1,1.9,1.1c0.9,0,1.5-0.4,1.8-1.1C35.5,41.1,35.7,39.7,35.7,37.8z"/>
		<path class="st0" d="M56.6,43.1c-0.7,0.9-1.5,1.6-2.5,2.1c-1,0.5-2,0.7-3.1,0.7c-1.9,0-3.3-0.4-4.1-1.3c-0.8-0.8-1.2-2.3-1.2-4.4
			v-5.8c0-0.6-0.1-1-0.3-1.2c-0.2-0.2-0.6-0.3-1.2-0.3h-0.5v-2.8H52V40c0,0.9,0.2,1.5,0.5,2c0.3,0.4,0.9,0.6,1.5,0.6
			c0.7,0,1.3-0.3,1.7-0.8c0.4-0.6,0.6-1.3,0.6-2.3v-5c0-0.6-0.1-1-0.3-1.2c-0.2-0.2-0.6-0.3-1.2-0.3h-0.6v-2.8h8.4V41
			c0,0.6,0.1,1,0.3,1.2c0.2,0.2,0.6,0.3,1.2,0.3h0.7v2.8h-8.3V43.1z"/>
		<path class="st0" d="M85.1,41c0,0.6,0.1,1,0.3,1.2c0.2,0.2,0.6,0.3,1.2,0.3h0.6v2.8H77.1v-2.8h0.3c0.5,0,0.9-0.1,1.1-0.3
			s0.3-0.6,0.3-1.2v-5.5c0-0.9-0.2-1.5-0.5-1.9C78,33.2,77.4,33,76.7,33c-0.7,0-1.3,0.3-1.7,0.8c-0.4,0.6-0.6,1.3-0.6,2.3v5
			c0,0.6,0.1,1,0.3,1.2c0.2,0.2,0.6,0.3,1.1,0.3h0.3v2.8H65.8v-2.8h0.8c0.6,0,1-0.1,1.2-0.3C67.9,42,68,41.6,68,41v-6.5
			c0-0.6-0.1-1-0.3-1.2c-0.2-0.2-0.6-0.3-1.2-0.3h-0.8v-2.8h8.4v2.3c0.7-0.9,1.5-1.6,2.4-2.1s2-0.7,3.2-0.7c1.9,0,3.3,0.4,4.1,1.3
			c0.8,0.8,1.2,2.3,1.2,4.4V41z"/>
		<path class="st0" d="M89.8,33h-2.1v-2.8h0.1c1.3,0,2.3-0.5,3-1.4c0.7-0.9,1.2-2.4,1.6-4.5h3.8v5.9h4.5V33h-4.5v8.2
			c0,0.6,0.1,1.1,0.3,1.4s0.5,0.4,0.9,0.4c0.5,0,0.8-0.2,1-0.7c0.2-0.5,0.3-1.4,0.3-2.7v-1.4h2.8v2.1c0,2.1-0.4,3.6-1.3,4.4
			c-0.9,0.9-2.3,1.3-4.3,1.3c-1.1,0-2.1-0.2-2.9-0.5c-0.8-0.3-1.5-0.8-2-1.4c-0.3-0.4-0.6-0.9-0.7-1.4c-0.2-0.5-0.2-1.4-0.2-2.7V33z
			"/>
		<path class="st0" d="M111.5,41c0,0.6,0.1,1,0.3,1.2c0.2,0.2,0.6,0.3,1.2,0.3h0.5v2.8H103v-2.8h0.6c0.6,0,1-0.1,1.2-0.3
			c0.2-0.2,0.3-0.6,0.3-1.2v-6.5c0-0.6-0.1-1-0.3-1.2c-0.2-0.2-0.6-0.3-1.2-0.3H103v-2.8h8.5V41z M105,26.1c0-0.8,0.3-1.5,0.8-2.1
			c0.6-0.6,1.2-0.8,2-0.8c0.8,0,1.5,0.3,2.1,0.9c0.6,0.6,0.8,1.3,0.8,2.1c0,0.8-0.3,1.5-0.8,2.1c-0.6,0.6-1.2,0.8-2.1,0.8
			c-0.8,0-1.5-0.3-2.1-0.8C105.3,27.6,105,26.9,105,26.1z"/>
		<path class="st0" d="M117,33.1h-2.2v-2.9h2.2v-0.9c0-2.2,0.6-3.7,1.7-4.7c1.1-1,2.9-1.4,5.4-1.4c1.7,0,3.1,0.3,4.2,1
			c1,0.7,1.6,1.6,1.6,2.7c0,0.7-0.3,1.3-0.8,1.8c-0.5,0.5-1.2,0.7-2,0.7c-0.7,0-1.3-0.2-1.8-0.6c-0.5-0.4-0.7-0.9-0.7-1.5
			c0-0.4,0.1-0.7,0.3-1c0.2-0.3,0.5-0.6,0.9-0.8c-0.2-0.1-0.3-0.1-0.5-0.1c-0.1,0-0.2,0-0.4,0c-0.6,0-1,0.2-1.2,0.6
			c-0.2,0.4-0.4,1.1-0.4,2.2v2.1h2.8v2.9h-2.8V41c0,0.6,0.1,1.1,0.3,1.3c0.2,0.2,0.6,0.3,1.2,0.3h1.3v2.8h-11.4v-2.8h0.8
			c0.6,0,1-0.1,1.2-0.3c0.2-0.2,0.3-0.6,0.3-1.2V33.1z"/>
		<path class="st0" d="M140.3,43.1c-0.7,0.9-1.5,1.6-2.5,2.1c-1,0.5-2,0.7-3.1,0.7c-1.9,0-3.3-0.4-4.1-1.3c-0.8-0.8-1.2-2.3-1.2-4.4
			v-5.8c0-0.6-0.1-1-0.3-1.2c-0.2-0.2-0.6-0.3-1.2-0.3h-0.5v-2.8h8.3V40c0,0.9,0.2,1.5,0.5,2c0.3,0.4,0.9,0.6,1.5,0.6
			c0.7,0,1.3-0.3,1.7-0.8s0.6-1.3,0.6-2.3v-5c0-0.6-0.1-1-0.3-1.2c-0.2-0.2-0.6-0.3-1.2-0.3H138v-2.8h8.4V41c0,0.6,0.1,1,0.3,1.2
			c0.2,0.2,0.6,0.3,1.2,0.3h0.7v2.8h-8.3V43.1z"/>
		<path class="st0" d="M151.7,28.2c0-0.6-0.1-1-0.3-1.2c-0.2-0.2-0.6-0.3-1.2-0.3h-0.7v-2.8h8.5V41c0,0.6,0.1,1,0.3,1.2
			c0.2,0.2,0.6,0.3,1.2,0.3h0.5v2.8h-10.5v-2.8h0.7c0.6,0,1-0.1,1.2-0.3c0.2-0.2,0.3-0.6,0.3-1.2V28.2z"/>
	</g>
</g>
</svg>
