<?xml version="1.0" encoding="utf-8"?>
<!-- Generator: Adobe Illustrator 25.0.0, SVG Export Plug-In . SVG Version: 6.00 Build 0)  -->
<svg version="1.1" id="Capa_1" xmlns="http://www.w3.org/2000/svg" xmlns:xlink="http://www.w3.org/1999/xlink" x="0px" y="0px"
	 viewBox="0 0 43 43" style="enable-background:new 0 0 43 43;" xml:space="preserve">
<style type="text/css">
	.st0{fill:#FFFFFF;}
</style>
<g>
	<g>
		<defs>
			<circle id="SVGID_1_" cx="21.5" cy="21.5" r="21.5"/>
		</defs>
		<use xlink:href="#SVGID_1_"  style="overflow:visible;fill:#5B8B30;"/>
		<clipPath id="SVGID_2_">
			<use xlink:href="#SVGID_1_"  style="overflow:visible;"/>
		</clipPath>
	</g>
	<g>
		<g>
			<path class="st0" d="M21.5,10.4c3.6,0,4,0,5.5,0.1c1.3,0.1,2,0.3,2.5,0.5c0.6,0.2,1.1,0.5,1.6,1c0.5,0.5,0.8,0.9,1,1.6
				c0.2,0.5,0.4,1.2,0.5,2.5c0.1,1.4,0.1,1.9,0.1,5.5s0,4-0.1,5.5c-0.1,1.3-0.3,2-0.5,2.5c-0.2,0.6-0.5,1.1-1,1.6
				c-0.5,0.5-0.9,0.8-1.6,1c-0.5,0.2-1.2,0.4-2.5,0.5c-1.4,0.1-1.9,0.1-5.5,0.1c-3.6,0-4,0-5.5-0.1c-1.3-0.1-2-0.3-2.5-0.5
				c-0.6-0.2-1.1-0.5-1.6-1c-0.5-0.5-0.8-0.9-1-1.6c-0.2-0.5-0.4-1.2-0.5-2.5c-0.1-1.4-0.1-1.9-0.1-5.5s0-4,0.1-5.5
				c0.1-1.3,0.3-2,0.5-2.5c0.2-0.6,0.5-1.1,1-1.6c0.5-0.5,0.9-0.8,1.6-1c0.5-0.2,1.2-0.4,2.5-0.5C17.4,10.4,17.9,10.4,21.5,10.4
				 M21.5,8c-3.7,0-4.1,0-5.6,0.1c-1.4,0.1-2.4,0.3-3.3,0.6C11.7,9,11,9.5,10.2,10.2C9.5,11,9,11.7,8.7,12.6
				c-0.3,0.9-0.6,1.8-0.6,3.3C8,17.4,8,17.8,8,21.5c0,3.7,0,4.1,0.1,5.6c0.1,1.4,0.3,2.4,0.6,3.3c0.3,0.9,0.8,1.6,1.6,2.4
				c0.8,0.8,1.5,1.2,2.4,1.6c0.9,0.3,1.8,0.6,3.3,0.6c1.4,0.1,1.9,0.1,5.6,0.1c3.7,0,4.1,0,5.6-0.1c1.4-0.1,2.4-0.3,3.3-0.6
				c0.9-0.3,1.6-0.8,2.4-1.6c0.8-0.8,1.2-1.5,1.6-2.4c0.3-0.9,0.6-1.8,0.6-3.3c0.1-1.4,0.1-1.9,0.1-5.6s0-4.1-0.1-5.6
				c-0.1-1.4-0.3-2.4-0.6-3.3c-0.3-0.9-0.8-1.6-1.6-2.4C32,9.5,31.2,9,30.3,8.7c-0.9-0.3-1.8-0.6-3.3-0.6C25.6,8,25.2,8,21.5,8
				L21.5,8z"/>
			<path class="st0" d="M21.5,14.5c-3.8,0-6.9,3.1-6.9,6.9s3.1,6.9,6.9,6.9c3.8,0,6.9-3.1,6.9-6.9S25.3,14.5,21.5,14.5z M21.5,26
				C19,26,17,24,17,21.5s2-4.5,4.5-4.5s4.5,2,4.5,4.5S24,26,21.5,26z"/>
			<circle class="st0" cx="28.7" cy="14.3" r="1.6"/>
		</g>
	</g>
</g>
</svg>
