<?xml version="1.0" encoding="utf-8"?>
<!-- Generator: Adobe Illustrator 25.0.0, SVG Export Plug-In . SVG Version: 6.00 Build 0)  -->
<svg version="1.1" id="Capa_1" xmlns="http://www.w3.org/2000/svg" xmlns:xlink="http://www.w3.org/1999/xlink" x="0px" y="0px"
	 viewBox="0 0 43 43" style="enable-background:new 0 0 43 43;" xml:space="preserve">
<style type="text/css">
	.st0{fill:#5B8B30;}
	.st1{fill:#FFFFFF;}
</style>
<g>
	<path class="st0" d="M43,21.5C43,9.6,33.4,0,21.5,0S0,9.6,0,21.5c0,10.7,7.9,19.6,18.1,21.2v-15h-5.5v-6.2h5.5v-4.7
		c0-5.4,3.2-8.4,8.1-8.4c2.4,0,4.8,0.4,4.8,0.4v5.3h-2.7c-2.7,0-3.5,1.7-3.5,3.4v4h6l-1,6.2h-5v15C35.1,41.1,43,32.2,43,21.5z"/>
	<path class="st1" d="M29.8,27.7l1-6.2h-6v-4c0-1.7,0.8-3.4,3.5-3.4h2.7V8.8c0,0-2.5-0.4-4.8-0.4c-4.9,0-8.1,3-8.1,8.4v4.7h-5.5v6.2
		h5.5v15c1.1,0.2,2.2,0.3,3.4,0.3c1.1,0,2.3-0.1,3.4-0.3v-15H29.8z"/>
</g>
</svg>
