<?xml version="1.0" encoding="utf-8"?>
<!-- Generator: Adobe Illustrator 25.0.0, SVG Export Plug-In . SVG Version: 6.00 Build 0)  -->
<svg version="1.1" id="Capa_1" xmlns="http://www.w3.org/2000/svg" xmlns:xlink="http://www.w3.org/1999/xlink" x="0px" y="0px"
	 viewBox="0 0 43 43" style="enable-background:new 0 0 43 43;" xml:space="preserve">
<style type="text/css">
	.st0{fill-rule:evenodd;clip-rule:evenodd;fill:#5B8B30;}
	.st1{fill:#FFFFFF;}
</style>
<g>
	<circle class="st0" cx="5796.2" cy="65.2" r="21.5"/>
	<g>
		<g>
			<path class="st1" d="M5791.9,77.7c10.5,0,16.2-8.7,16.2-16.2c0-0.2,0-0.5,0-0.7c1.1-0.8,2.1-1.8,2.8-3c-1,0.5-2.1,0.8-3.3,0.9
				c1.2-0.7,2.1-1.8,2.5-3.2c-1.1,0.7-2.3,1.1-3.6,1.4c-1-1.1-2.5-1.8-4.2-1.8c-3.2,0-5.7,2.6-5.7,5.7c0,0.4,0,0.9,0.1,1.3
				c-4.7-0.2-8.9-2.5-11.8-6c-0.5,0.8-0.8,1.8-0.8,2.9c0,2,1,3.7,2.5,4.7c-0.9,0-1.8-0.3-2.6-0.7c0,0,0,0,0,0.1c0,2.8,2,5.1,4.6,5.6
				c-0.5,0.1-1,0.2-1.5,0.2c-0.4,0-0.7,0-1.1-0.1c0.7,2.3,2.8,3.9,5.3,4c-2,1.5-4.4,2.4-7.1,2.4c-0.5,0-0.9,0-1.4-0.1
				C5785.7,76.8,5788.7,77.7,5791.9,77.7"/>
		</g>
	</g>
</g>
<g>
	<circle class="st0" cx="21.5" cy="21.5" r="21.5"/>
	<g>
		<g>
			<path class="st1" d="M17.1,34c10.5,0,16.2-8.7,16.2-16.2c0-0.2,0-0.5,0-0.7c1.1-0.8,2.1-1.8,2.8-3c-1,0.5-2.1,0.8-3.3,0.9
				c1.2-0.7,2.1-1.8,2.5-3.2c-1.1,0.7-2.3,1.1-3.6,1.4c-1-1.1-2.5-1.8-4.2-1.8c-3.2,0-5.7,2.6-5.7,5.7c0,0.4,0.1,0.9,0.1,1.3
				c-4.7-0.2-8.9-2.5-11.8-6c-0.5,0.8-0.8,1.8-0.8,2.9c0,2,1,3.7,2.5,4.7c-0.9,0-1.8-0.3-2.6-0.7c0,0,0,0,0,0.1c0,2.8,2,5.1,4.6,5.6
				c-0.5,0.1-1,0.2-1.5,0.2c-0.4,0-0.7,0-1.1-0.1c0.7,2.3,2.8,3.9,5.3,4c-2,1.5-4.4,2.4-7.1,2.4c-0.5,0-0.9,0-1.4-0.1
				C10.9,33,13.9,34,17.1,34"/>
		</g>
	</g>
</g>
</svg>
