<?xml version="1.0" encoding="utf-8"?>
<!-- Generator: Adobe Illustrator 25.0.0, SVG Export Plug-In . SVG Version: 6.00 Build 0)  -->
<svg version="1.1" id="Capa_1" xmlns="http://www.w3.org/2000/svg" xmlns:xlink="http://www.w3.org/1999/xlink" x="0px" y="0px"
	 viewBox="0 0 228.2 230.9" style="enable-background:new 0 0 228.2 230.9;" xml:space="preserve">
<style type="text/css">
	.st0{fill:#268E00;}
	.st1{fill:#FFFFFF;}
</style>
<g>
	<path class="st0" d="M105.8,164.8c1.7,0.2,2.4-0.5,3.1-2.1c3-7.4,6-14.8,9.4-22.1c5.9-12.9,15-23.5,25-33.5
		c6.1-6,12-12.2,17.8-18.5c2-2.2,3.4-5.1,5.2-7.9c-6.4-3.6-12.5-4.1-19-2.1c-6.7,2.1-12.2,6.2-17,11.3c-0.6,0.7-1.3,1.4-2,1.8
		c-1.8,0.8-3.5,0.5-4.7-1.1c-1.3-1.7-1.1-3.4,0.3-5c3.9-4.7,8.6-8.5,14-11.3c8.1-4.3,16.6-5.9,26-3.2c-2.7-4.7-6.5-7.1-11.3-8.1
		c-6.1-1.3-12-0.3-17.9,1.5c-0.5,0.2-1,0.4-1.5,0.5c-2.2,0.6-4.2-0.3-5-2.3c-0.7-2,0.2-4.2,2.4-4.9c3.8-1.1,7.7-2.2,11.7-2.7
		c6.3-0.8,12.7-0.5,18.3,2.7c3.3,1.8,6.1,4.5,9.1,6.8c0-0.4-0.1-1.2-0.2-2c-1-4.3-3.2-8-6.5-10.9c-2.3-2-2.7-4.3-1.1-6.1
		c1.6-1.8,3.9-1.7,6.2,0.3c5.4,4.7,8.5,10.7,9.6,18c0.9-0.5,1.5-1,2.2-1.4c7.9-5,16.3-6.5,25.4-4.4c2.8,0.7,4.2,2.5,3.7,4.7
		c-0.6,2.4-2.6,3.5-5.5,2.8c-5.6-1.4-11-0.8-16.2,1.5c-0.6,0.3-1.2,0.7-1.7,1c4.4,0.4,8.9,0.6,13.2,1.3c6.7,1.2,12.5,4.3,17.8,8.6
		c2.3,1.9,2.7,4,1.2,5.9c-1.4,1.8-3.8,2-6,0.2c-5.4-4.3-11.5-6.9-18.3-8c0,0.3,0,0.4,0.1,0.5c9.2,5.4,12.1,14.2,12.9,24.1
		c0.1,1.8,0.1,3.6-0.1,5.4c-0.3,2.5-2,3.9-4.3,3.7c-2.2-0.2-3.5-1.8-3.4-4.3c0.2-5-0.2-9.8-2.2-14.5c-2.7-6.4-9.2-10.3-15.7-9.3
		c0.3,0.4,0.5,0.6,0.7,0.9c11.4,12.7,13.3,27.5,9.9,43.5c-0.5,2.2-2.6,3.5-4.6,3c-2.1-0.5-3.2-2.5-2.9-4.9c0.5-4.6,1.3-9.2,1.2-13.7
		c-0.3-10.2-4.3-18.9-12.4-25.8c-3.7,7.7-9.5,13.5-15.3,19.3c-3.9,3.9-7.7,7.9-11.7,11.7c-11.5,11.1-19.5,24.4-25.5,39.1
		c-1.2,3-2.4,6-3.5,9.1c0,0.1,0,0.3,0,0.6L105.8,164.8z M94.8,164.6c0.1-0.6,0.2-1.1,0.1-1.5c-0.2-10.7,0-21.5-0.8-32.2
		c-0.8-12.2-3.5-24.1-8.9-35.2c-3.6-7.4-7.2-14.8-10.7-22.3c-2-4.4-3.8-8.9-5.4-13.4c-0.8-2.1-1-4.3-1.5-6.5c-0.4,0-0.6,0-0.8,0.1
		c-0.6,0.2-1.1,0.5-1.7,0.7c-10.6,5.1-16.5,13.9-19.4,24.9c-0.7,2.6-1,5.3-1.5,8c-0.4,2.3-2.1,3.7-4.2,3.5c-2.2-0.2-3.5-1.8-3.4-4.3
		c0.1-1.4,0.3-2.7,0.5-4c2.1-11.9,7-22.3,16.7-30c2.2-1.8,4.7-3.2,7-4.8c-5.8-3-13.6-1.2-18.2,4.3c-3,3.6-4.9,7.8-6.2,12.3
		c-0.7,2.6-2.7,3.8-4.9,3.2c-2.2-0.6-3.3-2.7-2.6-5.3c0.5-1.9,1.2-3.8,1.9-5.6c3.9-8.9,9.5-15.8,19.5-17.9c0.1,0,0.1-0.3,0.2-0.5
		c-6.9-1.3-13.6-0.6-20.1,1.8c-2.6,1-4.6,0.2-5.5-2c-0.8-2.1,0.2-4.2,2.7-5.2c6.7-2.7,13.8-3.7,20.9-2.5c4.1,0.7,8.2,2,12.2,2.9
		c0,0.1,0-0.1,0-0.2c-0.2-0.3-0.5-0.6-0.7-0.9c-4.3-4.3-9.5-6.7-15.5-7.2c-2.1-0.2-3.6-1-4.1-3.2c-0.5-2.2,0.9-3.5,2.5-4.6
		c1.2,0,2.4,0,3.6,0c1.5,0.4,3.1,0.7,4.6,1.1C58.9,20.5,65,25,69.6,31.5c1.7-2.3,3.1-4.5,4.9-6.6c3-3.6,7.1-5.8,11.3-7.8
		c0.8,0,1.5,0,2.3,0c1.7,0.9,3,2.1,2.7,4.3c-0.2,2-1.6,2.9-3.3,3.6c-4.9,2.1-8.5,5.5-10.5,10.6c5.3-3.5,11-5,17.2-4.3
		c8.5,0.9,15.7,4.7,22.3,9.9c1.9,1.5,2,3.8,0.5,5.4c-1.4,1.6-3.5,1.9-5.5,0.4c-5.1-3.8-10.5-6.9-16.9-7.9c-5-0.8-9.7,0.1-14.1,3.9
		c6.3,0.5,11.7,2.1,16.5,5.5c7.7,5.3,13.1,12.5,16.6,21.1c1,2.4,0.1,4.4-2,5.3c-2.1,0.9-4.1,0-5.1-2.4c-2.8-6.2-6.4-11.9-11.8-16.2
		c-5.6-4.5-11.9-6.4-19.1-5c0.3,5.3,2,10.1,4.1,14.6c4.5,9.6,9.2,19.2,13.7,28.9c5.3,11.3,7.8,23.4,8.6,35.8
		c0.7,11,0.6,22.1,0.8,33.1L94.8,164.6z"/>
</g>
<path class="st0" d="M169.7,170.7c-17.2-10.7-39.9-17.3-64.9-17.3s-47.7,6.5-64.9,17.3H169.7z"/>
<g>
	<path class="st1" d="M30.8,178.3v30.5h17.5v11.6H16.9v-42.1H30.8z"/>
	<path class="st1" d="M88.9,193.3c0,10.2-6.3,16.1-17.2,16.1h-5.8v10.9H52v-42.1h19.7C82.6,178.3,88.9,183.7,88.9,193.3z
		 M75.7,193.8c0-3.1-1.7-4.9-4.7-4.9h-5.1v10H71C74,198.9,75.7,197,75.7,193.8z"/>
	<path class="st1" d="M114,189.4c-5,0-8.7,4-8.7,9.6c0,5.6,3.7,9.7,8.7,9.7c3,0,6.8-1.9,9.5-4.8l8,8.6c-4.7,5.1-11.8,8.4-18.3,8.4
		c-12.9,0-22.3-9.2-22.3-21.7c0-12.4,9.6-21.4,22.8-21.4c6.4,0,13.4,3,17.8,7.7l-8,9.5C121,191.7,117.2,189.4,114,189.4z"/>
	<path class="st1" d="M169.6,178.3v11h-12v31.1h-13.9v-31.1h-11.9v-11H169.6z"/>
	<path class="st1" d="M191.9,189.4c-5,0-8.7,4-8.7,9.6c0,5.6,3.7,9.7,8.7,9.7c3,0,6.8-1.9,9.5-4.8l8,8.6c-4.7,5.1-11.8,8.4-18.3,8.4
		c-12.9,0-22.3-9.2-22.3-21.7c0-12.4,9.6-21.4,22.8-21.4c6.4,0,13.4,3,17.8,7.7l-8,9.5C199,191.7,195.2,189.4,191.9,189.4z"/>
</g>
</svg>
