<?xml version="1.0" encoding="utf-8"?>
<!-- Generator: Adobe Illustrator 25.0.0, SVG Export Plug-In . SVG Version: 6.00 Build 0)  -->
<svg version="1.1" id="layer" xmlns="http://www.w3.org/2000/svg" xmlns:xlink="http://www.w3.org/1999/xlink" x="0px" y="0px"
	 viewBox="0 0 186.9 160.7" style="enable-background:new 0 0 186.9 160.7;" xml:space="preserve">
<style type="text/css">
	.st0{fill:#484038;}
	.st1{fill:#3E362E;}
	.st2{fill:#ADA49A;}
	.st3{fill:#1D1309;}
	.st4{fill:#151B1F;}
	.st5{fill:#5B5E5D;}
	.st6{fill:#242726;}
	.st7{fill:#21272B;}
	.st8{fill:#585B5D;}
	.st9{fill:#3A3E40;}
	.st10{fill:#575E66;}
	.st11{fill:#6C7277;}
	.st12{fill:#A5A9B2;}
	.st13{fill:#2C3D4F;}
	.st14{fill:#0F2237;}
	.st15{fill:#3D454B;}
	.st16{fill:#7E8386;}
	.st17{fill:#C6C9CA;}
	.st18{fill:#D6D8D9;}
	.st19{fill:#322920;}
	.st20{fill:#8595AD;}
	.st21{fill:#261D14;}
	.st22{fill:#B5BFCD;}
	.st23{fill:#6E819E;}
	.st24{fill:#2D241B;}
	.st25{fill:#9AA7BB;}
	.st26{fill:#D5DAE2;}
	.st27{fill:#C0C8D4;}
	.st28{fill:#E0E4EA;}
	.st29{fill:#4D5258;}
	.st30{fill:#ABABAB;}
	.st31{fill:#607595;}
	.st32{fill:#E9E5E2;}
	.st33{fill:#F7F6F5;}
	.st34{fill:#C2CAD6;}
	.st35{fill:#9FB8B9;}
	.st36{fill:#FFB639;}
	.st37{fill:#FF4800;}
	.st38{fill:#AAB5C6;}
	.st39{fill:#607594;}
	.st40{fill:#655E57;}
	.st41{fill:#DCDB48;}
	.st42{fill:#C1C9D5;}
	.st43{fill:#737F82;}
</style>
<g>
	<g>
		<path class="st0" d="M157.3,87.4l-1,1.1c-0.8,1-1.4,2.7-1.4,3.7l0.7,5.9c0,1,0.6,1.1,1.4,0.1l1-1.1c0.8-1,1.1-2.1,1.1-3.2
			l-0.4-6.4C158.7,86.4,158.1,86.4,157.3,87.4z"/>
		<g>
			<polygon class="st1" points="155,102.2 157.6,99.1 156.5,86.1 151.5,89.9 151.8,90.5 155.9,87.1 157,98.8 154.6,101.7 			"/>
		</g>
	</g>
	<polygon class="st2" points="50.9,63.5 33.3,72.3 15.1,84.2 123.3,146.7 145.6,136.2 159.1,126 	"/>
	<polygon class="st3" points="87.1,104.8 109.9,117.9 109.9,126.6 87.1,113.4 	"/>
	<polygon class="st3" points="91,115.5 106.4,124.4 106.4,117.2 91,108.3 	"/>
	<g>
		<g>
			<path id="XMLID_651_" class="st4" d="M51.3,92.1l4.1,7.2l0.6,1.1l4.5,6.8c0,0,2.4-1.4,4.3-2.5c0.2-0.1,0.4-0.2,0.5-0.3
				c0,0,0,0,0,0c1-0.7,1.6-2,1.6-3.9c0-0.5,0-1-0.1-1.5c-0.3-1.7-1-3.5-2-5.1c-1.1-1.8-2.5-3.3-4.1-4.2c-1.5-0.9-3-1.1-4.1-0.6
				c-0.2,0.1-0.4,0.2-0.6,0.4C54.3,90.4,51.3,92.1,51.3,92.1z"/>
			<path id="XMLID_650_" class="st5" d="M54.7,99.7l1.3,0.7l4.1,2.4l6.7-3.9c-0.3-1.7-1-3.5-2-5.1l-9.5,5.5L54.7,99.7z"/>
			<path id="XMLID_649_" class="st6" d="M66.3,100.8c0-4-2.8-8.8-6.3-10.8L66.3,100.8z"/>
			<g id="XMLID_647_">
				<path id="XMLID_648_" class="st7" d="M59.5,90.3c-1.9-1.1-3.5-1.1-4.7-0.3c-0.1,0-0.1,0.1-0.2,0.1c1.1-0.5,2.6-0.4,4.2,0.5
					c3.5,2,6.3,6.8,6.3,10.8c0,1.8-0.6,3.2-1.6,3.9c0.2-0.1,0.3-0.2,0.4-0.2c1.1-0.6,1.8-2,1.8-4C65.7,97.2,62.9,92.3,59.5,90.3z"/>
			</g>
			<g id="XMLID_645_">
				<path id="XMLID_646_" class="st7" d="M58.3,91c-1.9-1.1-3.5-1.1-4.7-0.3c-0.1,0-0.1,0.1-0.2,0.1c1.1-0.5,2.6-0.4,4.2,0.5
					c3.5,2,6.3,6.8,6.3,10.8c0,1.8-0.6,3.2-1.6,3.9c0.2-0.1,0.3-0.2,0.4-0.2c1.1-0.6,1.8-2,1.8-4C64.6,97.8,61.8,93,58.3,91z"/>
			</g>
			<g id="XMLID_643_">
				<path id="XMLID_644_" class="st7" d="M57.2,91.7c-1.9-1.1-3.5-1.1-4.7-0.3c-0.1,0-0.1,0.1-0.2,0.1c1.1-0.5,2.6-0.4,4.2,0.5
					c3.5,2,6.3,6.8,6.3,10.8c0,1.8-0.6,3.2-1.6,3.9c0.2-0.1,0.3-0.2,0.4-0.2c1.1-0.6,1.8-2,1.8-4C63.5,98.5,60.7,93.7,57.2,91.7z"/>
			</g>
		</g>
		<path class="st8" d="M49.7,96c0,4,2.8,8.8,6.3,10.8c3.5,2,6.3,0.4,6.3-3.6c0-4-2.8-8.8-6.3-10.8C52.5,90.4,49.7,92,49.7,96z"/>
		<ellipse transform="matrix(0.8633 -0.5047 0.5047 0.8633 -42.6973 41.8901)" class="st9" cx="56" cy="99.8" rx="5" ry="8.7"/>
		<path class="st7" d="M55.7,106.5c3.5,2,6.3,0.4,6.3-3.6c0-2.6-1.2-5.5-2.9-7.8c1.9,2.3,3.1,5.4,3.1,8c0,4-2.8,5.6-6.3,3.6
			c-1.2-0.7-2.4-1.8-3.4-3.1C53.5,104.9,54.6,105.9,55.7,106.5z"/>
		<path class="st10" d="M50.9,96.7c0,3.2,2.3,7.1,5,8.7s5,0.3,5-2.9c0-3.2-2.3-7.1-5-8.7S50.9,93.5,50.9,96.7z"/>
		<path class="st11" d="M52.1,97.4c0,2.4,1.7,5.4,3.9,6.6c2.1,1.2,3.9,0.2,3.9-2.2c0-2.4-1.7-5.4-3.9-6.6
			C53.8,93.9,52.1,94.9,52.1,97.4z"/>
		<path class="st12" d="M52.1,97.4c0,2.4,1.7,5.4,3.9,6.6c2.1,1.2,3.9,0.2,3.9-2.2c0-2.4-1.7-5.4-3.9-6.6
			C53.8,93.9,52.1,94.9,52.1,97.4z M52.5,97.5c0-2.3,1.6-3.2,3.6-2c2,1.1,3.6,3.9,3.6,6.2c0,2.3-1.6,3.2-3.6,2
			C54.1,102.5,52.5,99.8,52.5,97.5z"/>
		<path class="st13" d="M53.1,97.6c0,2,1.4,4.5,3.2,5.5c1.6,0.9,3,0.3,3.1-1.4c0-0.1,0-0.3,0-0.4c0-1.4-0.6-2.9-1.6-4.1
			c-0.5-0.6-1-1-1.6-1.4C54.6,94.8,53.1,95.6,53.1,97.6z"/>
		<path class="st14" d="M56.6,96.6c-1-0.6-2.4-0.6-3.3-0.1c0.4-1.2,1.6-1.5,3-0.7c1.4,0.8,2.5,2.4,3,4.1
			C58.7,98.5,57.7,97.3,56.6,96.6z"/>
		<path class="st7" d="M54.8,98.1c0,1.5,1.1,3.4,2.4,4.2c1,0.6,1.9,0.4,2.3-0.5c0-0.1,0-0.3,0-0.4c0-1.4-0.6-2.9-1.6-4.1
			c-0.2-0.2-0.4-0.4-0.7-0.5C55.9,95.9,54.8,96.5,54.8,98.1z"/>
		<path id="XMLID_642_" class="st15" d="M59,100.2c0,0,0,0.1,0,0.1c0,0.3-0.1,0.5-0.2,0.7l0,0c-0.3,0.6-1,0.8-1.9,0.3
			c-1.1-0.7-2-2.2-2-3.5c0-0.7,0.3-1.2,0.7-1.4c0,0,0,0,0.1,0c0.3-0.1,0.6-0.1,1,0.1c0.1,0,0.2,0.1,0.3,0.1c0.9,0.5,1.6,1.5,1.9,2.6
			c0.1,0.2,0.1,0.4,0.1,0.6C59,100,59,100.1,59,100.2z"/>
		<g>
			<path id="XMLID_641_" class="st16" d="M58.9,100.3c0,0,0,0.1,0,0.1c0,0.3-0.1,0.5-0.2,0.7l0,0c-0.3,0.6-1,0.8-1.9,0.3
				c-1.1-0.7-2-2.2-2-3.5c0-0.7,0.3-1.2,0.7-1.4c0,0,0,0,0.1,0c0.3-0.1,0.6-0.1,1,0.1c0.1,0,0.2,0.1,0.3,0.1
				c0.9,0.5,1.6,1.5,1.9,2.6c0.1,0.2,0.1,0.4,0.1,0.6C58.9,100.1,58.9,100.2,58.9,100.3z"/>
			<polygon id="XMLID_640_" class="st15" points="57.7,99.7 58.2,100.7 57.8,100.9 55.9,97.4 56.3,97.1 			"/>
			<polygon id="XMLID_639_" class="st17" points="57,99.2 57.8,100.9 57.4,101.1 55.6,97.6 55.9,97.4 			"/>
			<path id="XMLID_638_" class="st11" d="M58.2,99.3c0,0.3-0.1,0.4-0.2,0.6c-0.2,0.2-0.6,0.4-0.6,0.4L56.1,98c0,0,0.3-0.2,0.5-0.3
				c0.2-0.1,0.4-0.1,0.7,0C57.8,98,58.2,98.7,58.2,99.3z"/>
			<path id="XMLID_637_" class="st17" d="M57.7,99.6c0,0.6-0.4,0.8-0.9,0.5c-0.5-0.3-0.9-1-0.9-1.6c0-0.6,0.4-0.8,0.9-0.5
				C57.3,98.3,57.7,99,57.7,99.6z"/>
			<path id="XMLID_636_" class="st11" d="M57.2,99.3c0,0.1,0,0.2-0.1,0.2c-0.1,0.1-0.3,0.2-0.3,0.2l-0.6-1c0,0,0.1-0.1,0.2-0.1
				c0.1-0.1,0.2-0.1,0.3,0C57,98.8,57.2,99.1,57.2,99.3z"/>
			<path id="XMLID_635_" class="st18" d="M57,99.5c0,0.3-0.2,0.4-0.4,0.2c-0.2-0.1-0.4-0.4-0.4-0.7c0-0.3,0.2-0.4,0.4-0.2
				C56.8,98.9,57,99.2,57,99.5z"/>
		</g>
	</g>
	<polygon class="st3" points="105.6,127.2 109.6,124.1 121.8,132.7 122.6,123.2 112.5,117.4 108.6,117.3 104.6,120.2 	"/>
	<g>
		<g>
			<path id="XMLID_634_" class="st4" d="M108.2,124.9l4.1,7.2l0.6,1.1l4.5,6.8c0,0,2.4-1.4,4.3-2.5c0.2-0.1,0.4-0.2,0.5-0.3
				c0,0,0,0,0,0c1-0.7,1.6-2,1.6-3.9c0-0.5,0-1-0.1-1.5c-0.3-1.7-1-3.5-2-5.1c-1.1-1.8-2.5-3.3-4.1-4.2c-1.5-0.9-3-1.1-4.1-0.6
				c-0.2,0.1-0.4,0.2-0.6,0.4C111.2,123.2,108.2,124.9,108.2,124.9z"/>
			<path id="XMLID_633_" class="st4" d="M111.6,132.4l1.3,0.7l4.1,2.4l6.7-3.9c-0.3-1.7-1-3.5-2-5.1l-9.5,5.5L111.6,132.4z"/>
			<path id="XMLID_632_" class="st6" d="M123.3,133.6c0-4-2.8-8.8-6.3-10.8L123.3,133.6z"/>
			<g id="XMLID_630_">
				<path id="XMLID_631_" class="st7" d="M116.4,123.1c-1.9-1.1-3.5-1.1-4.7-0.3c-0.1,0-0.1,0.1-0.2,0.1c1.1-0.5,2.6-0.4,4.2,0.5
					c3.5,2,6.3,6.8,6.3,10.8c0,1.8-0.6,3.2-1.6,3.9c0.2-0.1,0.3-0.2,0.4-0.2c1.1-0.6,1.8-2,1.8-4C122.7,130,119.9,125.1,116.4,123.1
					z"/>
			</g>
			<g id="XMLID_628_">
				<path id="XMLID_629_" class="st7" d="M115.3,123.8c-1.9-1.1-3.5-1.1-4.7-0.3c-0.1,0-0.1,0.1-0.2,0.1c1.1-0.5,2.6-0.4,4.2,0.5
					c3.5,2,6.3,6.8,6.3,10.8c0,1.8-0.6,3.2-1.6,3.9c0.2-0.1,0.3-0.2,0.4-0.2c1.1-0.6,1.8-2,1.8-4
					C121.5,130.6,118.7,125.8,115.3,123.8z"/>
			</g>
			<g id="XMLID_626_">
				<path id="XMLID_627_" class="st7" d="M114.1,124.4c-1.9-1.1-3.5-1.1-4.7-0.3c-0.1,0-0.1,0.1-0.2,0.1c1.1-0.5,2.6-0.4,4.2,0.5
					c3.5,2,6.3,6.8,6.3,10.8c0,1.8-0.6,3.2-1.6,3.9c0.2-0.1,0.3-0.2,0.4-0.2c1.1-0.6,1.8-2,1.8-4
					C120.4,131.3,117.6,126.4,114.1,124.4z"/>
			</g>
		</g>
		<path class="st8" d="M106.6,128.8c0,4,2.8,8.8,6.3,10.8c3.5,2,6.3,0.4,6.3-3.6c0-4-2.8-8.8-6.3-10.8
			C109.4,123.2,106.6,124.8,106.6,128.8z"/>
		<path class="st9" d="M106.8,129c0,3.9,2.8,8.6,6.1,10.6c3.4,2,6.1,0.4,6.1-3.5c0-3.9-2.8-8.6-6.1-10.6
			C109.5,123.5,106.8,125.1,106.8,129z"/>
		<path class="st7" d="M112.7,139.3c3.5,2,6.3,0.4,6.3-3.6c0-2.6-1.2-5.5-2.9-7.8c1.9,2.3,3.1,5.4,3.1,8c0,4-2.8,5.6-6.3,3.6
			c-1.2-0.7-2.4-1.8-3.4-3.1C110.4,137.7,111.5,138.7,112.7,139.3z"/>
		<path class="st10" d="M107.8,129.5c0,3.2,2.3,7.1,5,8.7c2.8,1.6,5,0.3,5-2.9c0-3.2-2.3-7.1-5-8.7
			C110.1,125,107.8,126.3,107.8,129.5z"/>
		<path class="st11" d="M109,130.1c0,2.4,1.7,5.4,3.9,6.6c2.1,1.2,3.9,0.2,3.9-2.2c0-2.4-1.7-5.4-3.9-6.6
			C110.7,126.7,109,127.7,109,130.1z"/>
		<path class="st12" d="M109,130.1c0,2.4,1.7,5.4,3.9,6.6c2.1,1.2,3.9,0.2,3.9-2.2c0-2.4-1.7-5.4-3.9-6.6
			C110.7,126.7,109,127.7,109,130.1z M109.4,130.3c0-2.3,1.6-3.2,3.6-2c2,1.1,3.6,3.9,3.6,6.2c0,2.3-1.6,3.2-3.6,2
			C111,135.3,109.4,132.6,109.4,130.3z"/>
		<path class="st13" d="M110.1,130.4c0,2,1.4,4.5,3.2,5.5c1.6,0.9,3,0.3,3.1-1.4c0-0.1,0-0.3,0-0.4c0-1.4-0.6-2.9-1.6-4.1
			c-0.5-0.6-1-1-1.6-1.4C111.5,127.6,110.1,128.4,110.1,130.4z"/>
		<path class="st14" d="M113.5,129.4c-1-0.6-2.4-0.6-3.3-0.1c0.4-1.2,1.6-1.5,3-0.7c1.4,0.8,2.5,2.4,3,4.1
			C115.7,131.3,114.7,130,113.5,129.4z"/>
		<path class="st7" d="M111.7,130.8c0,1.5,1.1,3.4,2.4,4.2c1,0.6,1.9,0.4,2.3-0.5c0-0.1,0-0.3,0-0.4c0-1.4-0.6-2.9-1.6-4.1
			c-0.2-0.2-0.4-0.4-0.7-0.5C112.8,128.7,111.7,129.3,111.7,130.8z"/>
		<path id="XMLID_625_" class="st15" d="M116,133c0,0,0,0.1,0,0.1c0,0.3-0.1,0.5-0.2,0.7l0,0c-0.3,0.6-1,0.8-1.9,0.3
			c-1.1-0.7-2-2.2-2-3.5c0-0.7,0.3-1.2,0.7-1.4c0,0,0,0,0.1,0c0.3-0.1,0.6-0.1,1,0.1c0.1,0,0.2,0.1,0.3,0.1c0.9,0.5,1.6,1.5,1.9,2.6
			c0.1,0.2,0.1,0.4,0.1,0.6C116,132.8,116,132.9,116,133z"/>
		<g>
			<path id="XMLID_624_" class="st16" d="M115.8,133.1c0,0,0,0.1,0,0.1c0,0.3-0.1,0.5-0.2,0.7l0,0c-0.3,0.6-1,0.8-1.9,0.3
				c-1.1-0.7-2-2.2-2-3.5c0-0.7,0.3-1.2,0.7-1.4c0,0,0,0,0.1,0c0.3-0.1,0.6-0.1,1,0.1c0.1,0,0.2,0.1,0.3,0.1
				c0.9,0.5,1.6,1.5,1.9,2.6c0.1,0.2,0.1,0.4,0.1,0.6C115.8,132.9,115.8,133,115.8,133.1z"/>
			<polygon id="XMLID_623_" class="st15" points="114.7,132.5 115.1,133.4 114.8,133.7 112.9,130.1 113.3,129.9 			"/>
			<polygon id="XMLID_622_" class="st17" points="113.9,132 114.8,133.7 114.4,133.9 112.5,130.4 112.9,130.1 			"/>
			<path id="XMLID_621_" class="st11" d="M115.1,132.1c0,0.3-0.1,0.4-0.2,0.6c-0.2,0.2-0.6,0.4-0.6,0.4l-1.3-2.3
				c0,0,0.3-0.2,0.5-0.3c0.2-0.1,0.4-0.1,0.7,0C114.7,130.8,115.1,131.5,115.1,132.1z"/>
			<path id="XMLID_620_" class="st17" d="M114.6,132.4c0,0.6-0.4,0.8-0.9,0.5c-0.5-0.3-0.9-1-0.9-1.6c0-0.6,0.4-0.8,0.9-0.5
				C114.2,131.1,114.6,131.8,114.6,132.4z"/>
			<path id="XMLID_619_" class="st11" d="M114.1,132.1c0,0.1,0,0.2-0.1,0.2c-0.1,0.1-0.3,0.2-0.3,0.2l-0.6-1c0,0,0.1-0.1,0.2-0.1
				c0.1-0.1,0.2-0.1,0.3,0C114,131.6,114.1,131.9,114.1,132.1z"/>
			<path id="XMLID_618_" class="st18" d="M113.9,132.3c0,0.3-0.2,0.4-0.4,0.2c-0.2-0.1-0.4-0.4-0.4-0.7s0.2-0.4,0.4-0.2
				C113.7,131.7,113.9,132,113.9,132.3z"/>
		</g>
	</g>
	<g>
		<g>
			<polygon class="st19" points="112.8,86.9 135.6,100.1 135.6,108.8 112.8,95.6 			"/>
			<polygon class="st19" points="79.3,67.6 119,90.5 119,95.8 79.3,72.9 			"/>
			<polygon class="st20" points="128.8,138.9 129.3,134.8 160.3,116.9 159.8,121 			"/>
			<path class="st21" d="M160.5,110.6l-0.2,6.3l-10.3,7c-2,1.4-4.1,2.6-6.3,3.7l-14.4,7.2l0.2-6.3l2.2-1.3l26.5-15.3L160.5,110.6z"
				/>
			<path class="st9" d="M80.6,76.5c0,4,2.8,8.9,6.3,10.9c3.5,2,6.3,0.4,6.3-3.6c0-4-2.8-8.9-6.3-10.9C83.4,70.8,80.6,72.5,80.6,76.5
				z"/>
			<path class="st19" d="M135.9,108.9l0.7,0.4l1.2-5c0.6-1.5,3-1.4,4.7-0.4l2.8,1.6c1.3,0.8,2.6,2.2,3.4,3.9l0.6,1.3
				c0,0.1,0.1,0.2,0.2,0.3c0.4,0.9,0.8,2,0.9,2.8l0.2,3.6l1,0.6l-0.5-3.1c0,0-1-5.6-4.1-8.7c-3-3-5.9-4.7-5.9-4.7s-4.1-0.8-4.4,0.4
				C136.4,103.2,135.9,108.9,135.9,108.9z"/>
			<path class="st19" d="M135.6,98.4v10.4l1,0.5l1.2-5c0.5-1.1,1.9-1.3,3.3-0.9v-1.7L135.6,98.4z"/>
			<polygon class="st19" points="116.6,97.6 132.1,106.5 132.1,99.4 116.6,90.4 			"/>
			<polygon class="st22" points="101.8,71.5 132.7,53.7 132.7,98.4 101.8,116.3 			"/>
			<polygon class="st23" points="132.7,72.6 101.8,90.5 101.8,116.3 132.7,98.4 			"/>
			<polygon class="st19" points="61.5,64.5 54.5,60.4 54.5,58.6 61.5,62.7 			"/>
			<polygon class="st20" points="59,62.1 61.5,63.6 67.3,62.4 67.3,60.6 59,55.8 			"/>
		</g>
	</g>
	<g>
		<g>
			<polygon class="st24" points="54.6,85.4 94.3,108.4 94.3,113.6 54.6,90.7 			"/>
			<path class="st25" d="M106.4,94.1l-1.8,17.8v14.7l1,0.6l1.2-5c0.5-1.1,1.9-1.3,3.3-0.9c0.5,0.1,1,0.3,1.4,0.6l2.8,1.6
				c1.3,0.8,2.6,2.2,3.4,3.9l0.6,1.3c0,0.1,0.1,0.2,0.2,0.3c0.4,0.9,0.8,2,0.9,2.8l0.2,3.6l1,0.6l6.7,3.5l1.5-0.5l0.4-3.5l0.1-0.6
				l0.2-6.3l0.3-0.7l-1.1-5.5l-4.3-19.2l-1-1.9l-15.7-9.1l-0.8,0.9L106.4,94.1z"/>
			<path class="st21" d="M118.5,129c0.4,0.9,0.8,2,0.9,2.8l0.2,3.6l1,0.6l6.7,3.5l1.5-0.5l0.4-3.5c-0.3-0.3-0.7-0.5-1-0.8L118.5,129
				z"/>
			<polygon class="st20" points="119.7,135.3 127.3,139.4 128.8,138.9 127.8,137.6 119.7,132.9 			"/>
			<path class="st26" d="M122.5,131.3l-1.6,1.1l0,0.4l-0.6,0.5l-0.8-1.5c-0.1-0.8-0.5-1.9-0.9-2.8c-0.1-0.1-0.1-0.2-0.2-0.3
				l-0.6-1.3c-0.8-1.7-2.1-3.2-3.4-3.9l-2.8-1.6c-0.5-0.3-1-0.5-1.5-0.6c0,0-0.1,0-0.1,0c0,0-0.1,0-0.1,0c-0.6-0.1-1.2-0.1-1.7,0
				l-1.5-1.8h0l-3.2-3.8l1.3-1.5l8.1,4.4c0,0,5,3.5,6.9,6c1.2,1.6,2.1,4.3,2.6,5.9C122.5,131.1,122.5,131.3,122.5,131.3z"/>
			<polygon class="st27" points="129.5,128.5 126.5,126.1 104.6,111.9 106.4,94.1 106.9,93.1 107.7,92.2 123.4,101.3 124.4,103.1 
				128.7,122.3 129.8,127.8 			"/>
			<polygon class="st28" points="107.2,93.3 123.8,103.6 127.6,121.5 128.3,123.7 129,128.1 129.5,128.5 129.8,127.8 128.7,122.3 
				128.1,121.4 124.4,103.1 			"/>
			<path class="st19" d="M113.2,99.4c-0.6-0.3-1.1,0-1.2,0.7c-0.2,1.9-1,6.9-0.5,7.7c0.4,0.6,5.8,5.4,7.7,8.4c0.3,0.5,5,3.1,5,3.1
				l-0.3-4.1c0,0-1.8-9.6-2.3-10.8C121.2,103.6,115.8,100.9,113.2,99.4z"/>
			<path class="st29" d="M123.7,118.5c-2-1.1-3.9-2.3-4.1-2.6c-1.3-2.1-4.2-4.9-6.1-6.8c-0.7-0.7-1.4-1.4-1.5-1.6
				c-0.3-0.6,0.3-5.2,0.5-6.6c0-0.3,0.1-0.5,0.1-0.8c0-0.2,0.1-0.5,0.3-0.5c0.1,0,0.1,0,0.2,0.1c0.6,0.3,1.3,0.7,2.1,1.2
				c2,1.1,5.8,3.1,6.1,3.7c0.4,0.9,1.8,8,2.3,10.7L123.7,118.5z"/>
			<polygon class="st20" points="28,29 101.8,71.5 101.8,116.3 28,73.7 			"/>
			<polygon class="st23" points="30.1,32.8 99.7,73 99.7,111.2 30.1,71.1 			"/>
			<polygon class="st27" points="31.5,70.6 31.5,33.7 30.1,32.8 30.1,71.1 99.7,111.2 99.7,109.9 			"/>
			<polygon class="st19" points="30.6,82.4 23.5,78.3 23.5,76.5 30.6,80.6 			"/>
			<polygon class="st24" points="28,80 30.6,81.5 36.4,80.3 36.4,78.5 28,73.7 			"/>
			<g>
				<path class="st30" d="M126.3,131.7l-3.8-2.4l-0.8-2c0-0.1-0.4-5.5-11.1-11.9l0,0l-1.4-0.9l0-0.1l1.6-17.9l0.3,0.2l11.2,6.3
					l1.1,3.7l0.6,2.1l2.4,12.1l0.5,6L126.3,131.7z M122.8,129.1l3.1,2l0.5-4.3l-0.5-5.9l-2.4-12.1l-0.6-2.1l-1-3.5l-10.8-6
					l-1.5,17.2l1.2,0.8c10.6,6.3,11.3,11.7,11.3,12.2L122.8,129.1z"/>
			</g>
			<polygon class="st20" points="127.2,135.6 128.2,136.2 129.2,137.2 129.8,139.6 129.1,140.3 127.3,139.4 126.7,138.6 			"/>
			<path class="st21" d="M120.7,135.9l-1-0.6l0-0.6l-0.2-2.9c-0.1-0.8-0.5-1.9-0.9-2.8c-0.1-0.1-0.1-0.2-0.2-0.3l-0.6-1.3
				c-0.8-1.7-2.1-3.2-3.4-3.9l-2.8-1.6c-0.2-0.1-0.4-0.2-0.6-0.3l0,0c-0.3-0.1-0.6-0.2-0.9-0.3c0,0-0.1,0-0.1,0c0,0-0.1,0-0.1,0
				c-0.6-0.1-1.2-0.1-1.7,0c-0.6,0.2-1,0.5-1.3,1l-1.2,5l-0.7-0.4c0,0,0.5-5.8,0.8-6.9c0.1-0.3,0.4-0.5,0.8-0.6h0c0,0,0,0,0,0
				c1.2-0.3,3.5,0.1,3.6,0.1l0,0c0,0,2.9,1.7,5.9,4.7c3.1,3,4.1,8.7,4.1,8.7L120.7,135.9z"/>
			<path class="st21" d="M110.1,119.4v1.7c0,0-0.1,0-0.1,0c0,0-0.1,0-0.1,0c0,0-0.1,0-0.1,0c-0.6-0.1-1.2-0.1-1.7,0
				c-0.6,0.2-1,0.5-1.3,1l-1.2,5l-2.2-1.3v-10.4L110.1,119.4L110.1,119.4z"/>
			<polygon class="st31" points="30.1,32.8 31.5,35.2 98.7,74 98.7,109.4 99.7,111.2 99.7,73 			"/>
		</g>
	</g>
	<path class="st12" d="M158.3,113.7l-7.4,5.3c-2.6,1.9-5.5,3.6-8.4,4.9l-10.8,5.1l0.1-1.9l26.5-15.3L158.3,113.7z"/>
	<path class="st28" d="M160.8,109.9L160.8,109.9l-0.3,0.7l-9.2,6.6c-2.6,1.9-5.5,3.6-8.4,4.9l-13.2,6.2l-0.1,0l0.3-0.7l-1.1-5.5
		l31.1-16.8L160.8,109.9z"/>
	<path class="st25" d="M160.8,109.9l-0.3,0.7l-9.2,6.6c-2.6,1.9-5.5,3.6-8.4,4.9l-13.2,6.2l0.2-0.6c0,0,13-5.7,17.8-8.8
		C152.4,115.9,160.6,110,160.8,109.9z"/>
	<path class="st32" d="M160.1,117.9l-9.9,6.7c-1.8,1.2-3.7,2.3-5.7,3.3l-15,7.6l-1.2-0.8l-1.2,0.9l1,0.6l1,0.9l0.6,2.4l-0.7,0.7
		l14.6-7.5c2.8-1.4,5.5-3,8-4.8l8.7-6l0.7-0.7l0-2.6l-1-0.9L160.1,117.9z"/>
	<polygon class="st32" points="59,11.1 28,29 101.8,71.5 132.7,53.7 	"/>
	<path class="st32" d="M135,76.4l-27.3,15.8l15.7,9.1l1,1.9l3.7-1.5c8.6-3.4,16.5-8.2,23.5-14.2l0.1-0.1l-1-1.9L135,76.4z"/>
	<g>
		<g>
			<polygon class="st27" points="111.9,89.5 127.4,97.9 127.5,98 126.9,98.4 111.8,89.8 			"/>
			<polygon class="st33" points="112.4,89.2 127.4,97.9 127,98.1 111.9,89.5 			"/>
		</g>
		<g>
			<polygon class="st27" points="115.5,87.5 131,95.8 131.1,96 130.5,96.3 115.4,87.7 			"/>
			<polygon class="st33" points="116,87.2 131,95.8 130.6,96.1 115.5,87.5 			"/>
		</g>
		<g>
			<polygon class="st27" points="119.2,85.4 134.6,93.8 134.7,93.9 134.1,94.3 119,85.6 			"/>
			<polygon class="st33" points="119.6,85.1 134.6,93.8 134.2,94 119.2,85.4 			"/>
		</g>
		<g>
			<polygon class="st27" points="122.8,83.3 138.2,91.7 138.3,91.8 137.7,92.2 122.6,83.6 			"/>
			<polygon class="st33" points="123.2,83 138.2,91.7 137.8,91.9 122.8,83.3 			"/>
		</g>
		<g>
			<polygon class="st27" points="126.4,81.2 141.9,89.6 141.9,89.7 141.3,90.1 126.2,81.5 			"/>
			<polygon class="st33" points="126.9,81 141.9,89.6 141.4,89.9 126.4,81.2 			"/>
		</g>
		<g>
			<polygon class="st27" points="130,79.2 145.5,87.5 145.5,87.7 144.9,88 129.8,79.4 			"/>
			<polygon class="st33" points="130.5,78.9 145.5,87.5 145.1,87.8 130,79.2 			"/>
		</g>
	</g>
	<path class="st33" d="M135,76.4l14.7,9c0,0-5.2,4.9-11.4,8.2c-6.2,3.3-14.8,6.9-14.8,6.9l-15.9-8.3l15.7,9.1l1.5,0.4l15.5-7.2
		l9.9-7.6l0.4-1.4L135,76.4z"/>
	<path class="st33" d="M150.7,85.5l-0.1,0.1c-7,6-14.9,10.8-23.5,14.2l-3.7,1.5l1,1.9l3.7-1.5c8.6-3.4,16.5-8.2,23.5-14.2l0.1-0.1
		L150.7,85.5z"/>
	<path class="st34" d="M151.7,87.4l-0.1,0.1c-7,6-14.9,10.8-23.5,14.2l-3.7,1.5l3.7,18.3l0.6,0.9l17.2-7l13.8-9.8l-0.7-0.7
		L151.7,87.4z"/>
	<path class="st19" d="M128.1,121.4l17.5-8.3l13.5-8.4l0.7,0.7l-6.9,4.9c-4.6,3.3-9.6,6-14.9,8.2l-9.3,3.8L128.1,121.4z"/>
	<path class="st19" d="M151.7,87.4l7.3,17.4l-5.9,4c-4.8,3.2-9.9,6-15.2,8.4l-9.8,4.3l-3.7-18.3l3.7-1.5c8.6-3.4,16.5-8.2,23.5-14.2
		L151.7,87.4z"/>
	<polygon class="st28" points="159.2,104.7 151.7,87.4 151.4,87.7 158.9,104.8 159.6,105.6 159.8,105.5 	"/>
	<path class="st29" d="M158.5,104.6l-5.6,3.8c-4.8,3.2-9.9,6-15.2,8.3l-9.3,4.1l-0.7-3.5l-2.2-11l-0.6-2.9l3.4-1.3
		c6-2.4,11.7-5.4,17-9.1c1.8-1.2,3.5-2.6,5.2-3.9c0.4-0.3,0.7-0.6,1.1-0.9l1.4,3.4L158.5,104.6z"/>
	<path class="st35" d="M155.3,102.1l-2.4-1.4l-2.1-2.5l-2.6-2.7l-2.9-2.6c1.8-1.2,3.5-2.6,5.2-3.9l0.9,0.9l3.6,8.3l0.2,1.2
		L155.3,102.1z"/>
	<path class="st19" d="M129.5,128.5l0,0.2l0,1.4l-0.2,4.7l-0.8-0.6c-0.4-0.2-0.6-0.7-0.6-1.1l0.3-5.1c0-0.2,0.3-0.3,0.4-0.2
		L129.5,128.5z"/>
	<polygon class="st36" points="131.5,127.8 131.5,129.2 129.5,130.1 129.5,130.1 129.5,128.7 129.5,128.7 	"/>
	<path class="st37" d="M129.5,128.7l0,1.4l-0.7-0.4c-0.2-0.1-0.3-0.4-0.3-0.6l0-0.4c0-0.3,0.3-0.4,0.5-0.2L129.5,128.7z"/>
	<polygon class="st36" points="160.5,110.9 160.4,112.5 158.5,113.6 158.5,112.2 	"/>
	<path class="st20" d="M133.1,130.3l0,1.3c0,0.3-0.2,0.6-0.5,0.7l-1.5,0.7c-0.4,0.2-0.8-0.1-0.8-0.5c0,0,0,0,0,0l0-1.3
		c0-0.3,0.2-0.6,0.5-0.7l1.4-0.6l0.1,0C132.7,129.6,133.1,129.9,133.1,130.3z"/>
	<path class="st20" d="M136.2,128.9l0,1.3c0,0.3-0.2,0.6-0.5,0.7l-1.5,0.7c-0.4,0.2-0.8-0.1-0.8-0.5c0,0,0,0,0,0l0-1.3
		c0-0.3,0.2-0.6,0.5-0.7l1.4-0.6l0.1,0C135.8,128.2,136.2,128.5,136.2,128.9z"/>
	<path class="st20" d="M156.9,116.8v1.2c0,0.3-0.1,0.5-0.3,0.6l-1.3,0.9c-0.4,0.2-0.8,0-0.8-0.4c0,0,0,0,0,0v-1.2
		c0-0.3,0.1-0.5,0.3-0.6l1.3-0.9c0,0,0,0,0,0C156.4,116.1,156.9,116.4,156.9,116.8z"/>
	<path class="st20" d="M159.7,114.9v1.2c0,0.3-0.1,0.5-0.3,0.6l-1.3,0.9c-0.4,0.2-0.8,0-0.8-0.4c0,0,0,0,0,0v-1.2
		c0-0.3,0.1-0.5,0.3-0.6l1.3-0.9c0,0,0,0,0,0C159.2,114.2,159.7,114.4,159.7,114.9z"/>
	<path class="st28" d="M132.3,129.8l0,1.3c0,0.3-0.2,0.6-0.5,0.7l-1.4,0.6c0,0,0,0,0,0l0-1.3c0-0.3,0.2-0.6,0.5-0.7L132.3,129.8
		C132.3,129.8,132.3,129.8,132.3,129.8z"/>
	<path class="st28" d="M135.3,128.4l0,1.3c0,0.3-0.2,0.6-0.5,0.7l-1.4,0.6c0,0,0,0,0,0l0-1.3c0-0.3,0.2-0.6,0.5-0.7L135.3,128.4
		C135.3,128.4,135.3,128.4,135.3,128.4z"/>
	<path class="st28" d="M156,116.4v1.2c0,0.3-0.1,0.5-0.3,0.6l-1.3,0.9c0,0,0,0,0,0c0,0,0,0,0,0v-1.2c0-0.3,0.1-0.5,0.3-0.6
		L156,116.4C156,116.4,156,116.3,156,116.4C156,116.3,156,116.4,156,116.4z"/>
	<path class="st28" d="M158.9,114.4v1.2c0,0.3-0.1,0.5-0.3,0.6l-1.3,0.9c0,0,0,0,0,0c0,0,0,0,0,0v-1.2c0-0.3,0.1-0.5,0.3-0.6
		L158.9,114.4C158.8,114.4,158.8,114.4,158.9,114.4C158.9,114.4,158.9,114.4,158.9,114.4z"/>
	<path class="st38" d="M129.2,137.2l14.3-7.5c3.7-1.9,7.3-4.1,10.8-6.4l6.9-4.7l0,2.6l-13.2,8.8l-18.2,9.5L129.2,137.2z"/>
	<path class="st33" d="M147.5,128.1c4.5-2.6,13.8-8.9,13.8-8.9l0-0.5l-6.9,4.7c-3.5,2.3-7.1,4.5-10.8,6.4l-14.3,7.5l0.6,2.4
		l-0.2-2.2C129.6,137.4,143,130.7,147.5,128.1z"/>
	<path class="st39" d="M129.8,139.6l-0.7,0.7l14.6-7.5c2.8-1.4,5.5-3,8-4.8l8.7-6l0.7-0.7l-13.2,8.8L129.8,139.6z"/>
	<polygon class="st38" points="160.3,116.1 159.9,116.3 159.9,113.6 160.4,113.1 	"/>
	<path class="st40" d="M136.7,127.3v1.6l5.9-2.8c3-1.4,5.8-3.1,8.4-5.1l3-2.2l0.1-1.6l-2.9,2.2c-2.9,2.1-5.9,4-9.2,5.5L136.7,127.3z
		"/>
	<polygon class="st41" points="144,124 144,125 147.2,123.2 147.2,122.2 	"/>
	<path class="st12" d="M136.6,129.7v0.6l5.9-2.8c3-1.4,5.8-3.1,8.4-5.1l3-2.2l0.1-0.6l-2.9,2.2c-2.9,2.1-5.9,4-9.2,5.5L136.6,129.7z
		"/>
	<path class="st23" d="M120.7,135.9l-1-0.6l0-0.6l-0.2-2.9c-0.1-0.8-0.5-1.9-0.9-2.8c-0.1-0.1-0.1-0.2-0.2-0.3l-0.6-1.3
		c-0.8-1.7-2.1-3.2-3.4-3.9l-2.8-1.6c-0.2-0.1-0.4-0.2-0.6-0.3l0,0l-0.8-0.4l-3.6-1.8l-3.2-1.6v-2.1l6.8,3.9l0,0
		c0,0,2.9,1.7,5.9,4.7c3.1,3,4.1,8.7,4.1,8.7L120.7,135.9z"/>
	<path class="st19" d="M153,91.4l-4.3,3.3c-4.8,3.2-9.9,6-15.2,8.3l-8,3.2l-0.6-2.9l3.4-1.3c6-2.4,11.7-5.4,17-9.1
		c1.8-1.2,3.5-2.6,5.2-3.9c0.4-0.3,0.7-0.6,1.1-0.9L153,91.4z"/>
	<path class="st38" d="M129.8,130.6l-0.3,0.1l-0.6-0.3c-0.2-0.1-0.4,0-0.4,0.2c-0.1,0.8-0.2,2.7-0.1,2.9c0.1,0.2,0.9,0.6,0.9,0.6
		c0,0,0.7-0.2,0.7-0.5c0-0.2,0.1-2,0.1-2.8C130.1,130.7,129.9,130.6,129.8,130.6z"/>
	<polygon class="st33" points="106.9,93.1 124.4,103.1 123.4,101.3 107.7,92.2 	"/>
	<path class="st19" d="M107.5,96.8l-0.8,7.9c0,0.3,0.2,0.6,0.4,0.8l1.4,0.8c0.3,0.2,0.8,0,0.8-0.4c0,0,0,0,0,0l0.8-7.9
		c0-0.3-0.2-0.6-0.4-0.8l-1.4-0.8l-0.1,0C108,96.1,107.6,96.4,107.5,96.8z"/>
	<path class="st29" d="M108.9,106.1c0,0-0.1,0-0.1,0l-1.4-0.8c-0.2-0.1-0.3-0.3-0.3-0.5l0.8-7.9l0,0c0-0.2,0.1-0.3,0.2-0.3
		c0,0,0.1,0,0.1,0l0.1,0l1.4,0.8c0.2,0.1,0.3,0.3,0.3,0.5l-0.8,7.9l0,0l0,0v0C109.1,106,109,106.1,108.9,106.1L108.9,106.1z"/>
	<polygon class="st42" points="107.7,92.2 107.2,93.3 106.9,94.3 105.2,112.3 105.1,114.3 103.9,115.8 103.9,118 103.3,117.7 
		103.3,115.5 104.6,114.1 104.6,111.9 106.4,94.1 106.9,93.1 	"/>
	<polygon class="st33" points="59,11.1 130.4,53.7 101.8,70.1 28,29 101.8,71.5 132.7,53.7 	"/>
	<path class="st43" d="M158.5,104.6l-5.6,3.8c-4.8,3.2-9.9,6-15.2,8.3l-9.3,4.1l-0.7-3.5l16.8-8l9.4-6.2L158.5,104.6z"/>
	<polygon class="st43" points="142.5,99.4 143,99.9 144.2,99.2 144.8,99.2 145.2,100 145.1,100.6 143.5,101.7 140.6,103.1 
		140.2,103 139.8,102 140.2,101.4 141.9,100.5 141.5,100 142,99.5 	"/>
	<g>
		<path class="st0" d="M120.6,108.6l-1,0.1c-0.8,0.2-1.4,1.1-1.4,2.2v6c0,1,0.6,1.8,1.4,1.6l1.3-0.2c0.8-0.2,1.1-1,1.1-2v-6
			C122,109.2,121.4,108.4,120.6,108.6z"/>
		<g>
			<polygon class="st1" points="120.1,119.6 126.1,117.2 125.8,116.7 120.7,118.6 120.7,107.9 124.2,106.2 123.9,105.6 120.1,107.6 
							"/>
		</g>
	</g>
</g>
</svg>
